<?xml version="1.0" encoding="utf-8"?>
<!-- Generator: Adobe Illustrator 15.1.0, SVG Export Plug-In . SVG Version: 6.00 Build 0)  -->
<!DOCTYPE svg PUBLIC "-//W3C//DTD SVG 1.1//EN" "http://www.w3.org/Graphics/SVG/1.1/DTD/svg11.dtd">
<svg version="1.1" xmlns="http://www.w3.org/2000/svg" xmlns:xlink="http://www.w3.org/1999/xlink"
	 x="0px" y="0px" viewBox="0 0 40 40" enable-background="new 0 0 40 40" xml:space="preserve">
<g>
	<path fill="#00080D" d="M9.272,20.425c-1.517,3.05-1.991,6.191-2.191,8.749c0.183,0.184,0.183,0.384,0.292,0.566
		c0.767,0.949,1.717,1.898,2.575,2.575c0-2.101,0.183-5.535,1.898-8.949l0.062,0.002c0.767,0.769,1.716,1.626,2.758,2.375
		c6.373,5.039,12.747,5.516,16.363,5.516c0.184,0,1.334-1.517,1.991-2.466c-1.644,0.383-8.492,1.241-16.655-5.223
		c-1.15-0.949-2.1-1.809-2.94-2.667l-0.062-0.1c0.768-1.041,1.717-2.191,2.85-3.232c1.424-1.333,2.758-2.465,4.09-3.323
		c0,0,0,0-0.001-0.002c0.015-0.007,0.027-0.016,0.042-0.024c-0.015,0.014-0.03,0.024-0.045,0.039
		c5.899,5.423,12.749,9.99,14.555,11.23c0.183-0.474,0.292-0.857,0.385-1.333c-1.893-1.419-6.81-5.193-12.768-11.16
		c5.697-3.121,9.823-2.628,9.823-2.628c-0.658-0.858-1.333-1.607-2.192-2.284c-2.357-0.38-6.245-0.31-10.483,1.925
		c-1.423-1.514-2.937-3.209-4.47-4.924c-0.656,0.182-1.424,0.475-2.099,0.858c1.041,1.807,2.665,3.669,4.271,5.385
		c-1.405,0.944-2.811,2.173-4.322,3.757c-0.768,0.858-1.517,1.716-2.101,2.574l-0.044-0.033c-2.466-3.909-2.374-7.141-2.101-8.656
		c-0.566,0.657-1.242,1.333-1.715,1.991c-0.457,2.209-0.457,5.442,2.301,9.333L9.272,20.425z"/>
	<path fill="#00080D" d="M29.501,32.454c-2.85,2.192-6.191,3.233-9.516,3.233c-4.748,0-9.313-2.101-12.454-6.191
		c-5.225-6.849-3.908-16.637,2.94-21.878c2.85-2.192,6.191-3.233,9.514-3.233c4.749,0,9.315,2.101,12.457,6.191
		C37.683,17.425,36.349,27.231,29.501,32.454z M34.267,9.06c-3.524-4.657-8.947-7.031-14.263-7.031
		c-3.799,0-7.707,1.242-10.938,3.708c-7.89,6.081-9.424,17.313-3.324,25.203c3.524,4.656,8.838,7.031,14.262,7.031
		c3.799,0,7.708-1.243,10.94-3.707C38.833,28.272,40.348,16.95,34.267,9.06z"/>
	<path fill="#00080D" d="M27.24,18.081c-1.425,1.149-1.715,3.233-0.657,4.657c1.15,1.515,3.232,1.716,4.748,0.657
		c1.424-1.149,1.717-3.233,0.657-4.749C30.856,17.222,28.773,16.948,27.24,18.081z"/>
	<path fill="#00080D" d="M20.301,26.51c-1.333,1.04-1.627,3.05-0.566,4.382c1.041,1.333,3.051,1.626,4.384,0.566
		c1.332-1.041,1.625-2.94,0.565-4.383C23.644,25.651,21.727,25.469,20.301,26.51z"/>
	<path fill="#00080D" d="M8.66,16.609c-2.101,1.625-2.465,4.565-0.859,6.666c1.626,2.1,4.567,2.465,6.666,0.858
		c2.101-1.606,2.465-4.565,0.859-6.666C13.699,15.366,10.649,14.983,8.66,16.609z"/>
</g>
</svg>
