<?xml version="1.0" encoding="utf-8"?>
<!-- Generator: Adobe Illustrator 15.1.0, SVG Export Plug-In . SVG Version: 6.00 Build 0)  -->
<!DOCTYPE svg PUBLIC "-//W3C//DTD SVG 1.1//EN" "http://www.w3.org/Graphics/SVG/1.1/DTD/svg11.dtd">
<svg version="1.1" xmlns="http://www.w3.org/2000/svg" xmlns:xlink="http://www.w3.org/1999/xlink"
	 x="0px" y="0px" viewBox="0 0 40 40" enable-background="new 0 0 40 40" xml:space="preserve">
<g>
	<path fill="#00080D" d="M15.683,20.35c0.087,0.175,0.262,0.262,0.434,0.262c0.176,0.087,0.349,0.087,0.524,0.087
		s0.348,0,0.436-0.087c0.174-0.088,0.262-0.175,0.436-0.349c0.086-0.175,0.175-0.349,0.262-0.523s0.087-0.436,0.087-0.785
		c0-0.261,0-0.435-0.087-0.697c-0.087-0.261-0.087-0.436-0.262-0.61c-0.087-0.175-0.262-0.262-0.349-0.436
		c-0.175-0.087-0.349-0.174-0.522-0.174c-0.261,0-0.436,0.087-0.609,0.174c-0.176,0.087-0.262,0.261-0.437,0.349
		c-0.087,0.174-0.174,0.348-0.262,0.521c-0.087,0.175-0.087,0.436-0.087,0.697c0,0.349,0,0.611,0.087,0.785
		C15.508,20.001,15.595,20.175,15.683,20.35z"/>
	<path fill="#00080D" d="M20.738,27.148c0.261,0,0.61,0,0.871,0.086c1.396-2.789,4.184-4.619,7.409-4.793V6.143
		C29.019,3.528,23.352,1,16.467,1C9.496,1,3.916,3.353,3.916,5.967v23.534c0,2.355,4.619,4.619,10.634,4.968
		c-0.088-0.349-0.088-0.697-0.088-1.046C14.462,30.024,17.252,27.148,20.738,27.148z M25.271,22.355h-4.358v-6.711h2.005v5.142
		h2.354L25.271,22.355L25.271,22.355z M16.467,2.831c4.968,0,8.978,1.22,8.978,2.703c0,1.481-4.009,2.702-8.978,2.702
		s-8.979-1.22-8.979-2.702C7.488,4.051,11.499,2.831,16.467,2.831z M12.719,20.785c0,0.174-0.087,0.348-0.174,0.523
		c-0.088,0.175-0.175,0.349-0.35,0.436c-0.175,0.176-0.349,0.261-0.522,0.349c-0.175,0.088-0.437,0.175-0.785,0.261
		c-0.262,0.088-0.61,0.088-1.047,0.088c-0.174,0-0.436,0-0.609,0c-0.176,0-0.349,0-0.524-0.088c-0.174,0-0.349-0.087-0.436-0.087
		c-0.174,0-0.261-0.087-0.35-0.175v-1.831c0.089,0.087,0.262,0.175,0.437,0.262c0.175,0.087,0.262,0.174,0.436,0.261
		c0.175,0.087,0.35,0.087,0.523,0.174c0.175,0.089,0.35,0.089,0.522,0.089c0.174,0,0.261,0,0.349-0.089
		c0.088,0,0.176-0.086,0.176-0.086c0.087,0,0.087-0.088,0.087-0.175s0-0.087,0-0.175c0-0.087,0-0.174-0.087-0.261
		c-0.087-0.087-0.087-0.175-0.176-0.175c-0.088-0.087-0.173-0.087-0.349-0.175c-0.175-0.087-0.261-0.087-0.436-0.173
		c-0.261-0.088-0.522-0.262-0.784-0.436c-0.175-0.175-0.349-0.262-0.523-0.436s-0.262-0.349-0.262-0.523
		c-0.087-0.175-0.087-0.436-0.087-0.611c0-0.348,0.087-0.61,0.174-0.87c0.176-0.262,0.35-0.523,0.524-0.698
		c0.261-0.174,0.522-0.349,0.871-0.435c0.35-0.087,0.698-0.175,1.132-0.175c0.262,0,0.437,0,0.611,0c0.174,0,0.35,0,0.522,0.088
		c0.175,0,0.262,0.087,0.436,0.087c0.088,0,0.262,0.086,0.349,0.086v1.744c-0.087-0.087-0.175-0.087-0.349-0.175
		c-0.087-0.086-0.261-0.086-0.436-0.174c-0.174-0.087-0.262-0.087-0.436-0.087c-0.175,0-0.349,0-0.522,0
		c-0.261,0-0.437,0-0.524,0.087c-0.173,0.087-0.173,0.174-0.173,0.349c0,0.087,0,0.174,0.088,0.174c0,0.087,0.085,0.087,0.173,0.174
		c0.088,0.087,0.176,0.087,0.261,0.175c0.088,0.088,0.262,0.088,0.437,0.175c0.262,0.087,0.523,0.261,0.785,0.349
		c0.262,0.174,0.436,0.261,0.61,0.436c0.174,0.173,0.262,0.348,0.435,0.522c0.088,0.174,0.175,0.435,0.175,0.785
		C12.719,20.437,12.719,20.611,12.719,20.785z M13.417,20.437c-0.176-0.436-0.262-0.871-0.262-1.395
		c0-0.524,0.087-1.045,0.262-1.481c0.174-0.436,0.434-0.785,0.696-1.133c0.261-0.349,0.697-0.524,1.046-0.698
		c0.436-0.175,0.872-0.261,1.396-0.261c0.522,0,0.958,0.087,1.307,0.261c0.437,0.175,0.784,0.435,1.046,0.698
		c0.262,0.261,0.523,0.697,0.697,1.045c0.175,0.436,0.262,0.871,0.262,1.482c0,0.349,0,0.785-0.175,1.046
		c-0.088,0.349-0.261,0.611-0.436,0.871c-0.174,0.262-0.349,0.523-0.61,0.697c-0.261,0.175-0.436,0.35-0.784,0.523l2.266,1.917
		h-2.614l-1.481-1.568c-0.437,0-0.872-0.175-1.221-0.26c-0.35-0.176-0.698-0.437-0.96-0.697
		C13.853,21.221,13.591,20.873,13.417,20.437z"/>
	<path fill="#00080D" d="M40,35.777c0-1.657-1.307-3.051-2.964-3.227c0.087-0.523,0.175-0.958,0.175-1.481
		c0-4.271-3.487-7.758-7.757-7.758c-3.225,0-6.103,1.918-7.233,4.882c-0.437-0.087-0.871-0.175-1.395-0.175
		c-3.051,0-5.492,2.439-5.492,5.49c0,2.964,2.354,5.404,5.404,5.491h16.385h0.612v-0.087C39.042,38.565,40,37.259,40,35.777z
		 M37.036,38.13H20.824c-2.526,0-4.619-2.092-4.619-4.618c0-2.527,2.093-4.619,4.619-4.619c0.524,0,1.046,0.087,1.482,0.26
		l0.437,0.175l0.174-0.435c0.958-2.79,3.575-4.707,6.537-4.707c3.834,0,6.885,3.139,6.885,6.886c0,0.61-0.088,1.221-0.259,1.83
		l-0.178,0.697l0.611-0.087c0.088,0,0.176,0,0.261,0c1.309,0,2.354,1.046,2.354,2.354C39.129,36.998,38.257,38.044,37.036,38.13z"/>
</g>
</svg>
