<?xml version="1.0" encoding="utf-8"?>
<!-- Generator: Adobe Illustrator 15.1.0, SVG Export Plug-In . SVG Version: 6.00 Build 0)  -->
<!DOCTYPE svg PUBLIC "-//W3C//DTD SVG 1.1//EN" "http://www.w3.org/Graphics/SVG/1.1/DTD/svg11.dtd">
<svg version="1.1" xmlns="http://www.w3.org/2000/svg" xmlns:xlink="http://www.w3.org/1999/xlink"
	 x="0px" y="0px" viewBox="0 0 40 40" enable-background="new 0 0 40 40" xml:space="preserve">
<g>
	<path fill="#00080D" d="M20,2C12.308,2,6.154,4.564,6.154,7.333v25.23C6.154,35.334,12.41,38,20,38
		c7.691,0,13.846-2.461,13.846-5.334V7.436C33.846,4.667,27.691,2,20,2z M6.461,33.59v-0.308C6.461,33.386,6.461,33.488,6.461,33.59
		L6.461,33.59z M15.999,17.897c-0.923,0-1.332-0.308-1.332,0.718v1.949c0,1.436-0.206,2.359-1.231,2.666v0.103
		c1.025,0.411,1.231,1.539,1.231,3.282v2.256c0,0.718,0.102,0.718,0.308,1.026c0.205,0.307,0.513,0.307,1.026,0.307v0.616v1.335
		c-1.437,0-2.463-0.31-3.078-0.822S12,29.796,12,28.358v-2.461c0-1.333-0.512-1.333-1.333-1.333V22C11.591,22,12,22,12,20.873
		v-1.949c0-1.23,0.309-2.051,0.923-2.462c0.615-0.513,1.642-0.718,3.078-0.718v2.153H15.999z M29.642,22.615v2.052
		c-0.923,0-1.335,0-1.335,1.333v2.358c0,1.437-0.307,2.461-0.921,3.076c-0.616,0.513-1.642,0.822-3.18,0.822v-1.949
		c0.409,0,0.82-0.104,1.024-0.31c0.207-0.307,0.309-0.307,0.309-1.024v-2.257c0-1.744,0.308-2.771,1.334-3.281v-0.104
		c-1.027-0.307-1.334-1.23-1.334-2.769v-1.846c0-1.025-0.513-0.718-1.333-0.718v-2.154c1.437,0,2.462,0.309,3.078,0.718
		c0.616,0.513,1.024,1.332,1.024,2.461v1.95c0,1.126,0.41,1.025,1.333,1.025V22.615L29.642,22.615z M20,9.795
		c-5.436,0-9.846-1.333-9.846-2.975c0-1.641,4.41-2.975,9.846-2.975c5.437,0,9.846,1.334,9.846,2.975
		C29.846,8.462,25.437,9.795,20,9.795z"/>
</g>
</svg>
