<?xml version="1.0" encoding="utf-8"?>
<!-- Generator: Adobe Illustrator 15.1.0, SVG Export Plug-In . SVG Version: 6.00 Build 0)  -->
<!DOCTYPE svg PUBLIC "-//W3C//DTD SVG 1.1//EN" "http://www.w3.org/Graphics/SVG/1.1/DTD/svg11.dtd">
<svg version="1.1" xmlns="http://www.w3.org/2000/svg" xmlns:xlink="http://www.w3.org/1999/xlink"
	 x="0px" y="0px" viewBox="0 0 40 40" enable-background="new 0 0 40 40" xml:space="preserve">
<g>
	<path fill="#00080D" d="M23.968,18.287c0,0.334-0.251,0.585-0.585,0.585h-4.426c-0.335,0-0.585-0.251-0.585-0.585V15.03
		c0-0.336,0.25-0.586,0.585-0.586h4.426c0.336,0,0.585,0.251,0.585,0.586V18.287L23.968,18.287z"/>
	<path fill="#00080D" d="M31.903,21.714c0,0.333-0.249,0.584-0.585,0.584h-4.427c-0.336,0-0.585-0.251-0.585-0.584v-3.26
		c0-0.333,0.251-0.583,0.585-0.583h4.427c0.336,0,0.585,0.25,0.585,0.583V21.714z"/>
	<path fill="#00080D" d="M23.968,25.054c0,0.334-0.251,0.584-0.585,0.584h-4.426c-0.335,0-0.585-0.251-0.585-0.584v-3.259
		c0-0.334,0.25-0.585,0.585-0.585h4.426c0.336,0,0.585,0.251,0.585,0.585V25.054L23.968,25.054z"/>
	<path fill="#00080D" d="M16.032,14.863c0,0.335-0.251,0.584-0.584,0.584h-4.512c-0.334,0-0.585-0.25-0.585-0.584v-3.425
		c0-0.334,0.25-0.585,0.585-0.585h4.428c0.417,0,0.668,0.251,0.668,0.585V14.863L16.032,14.863z"/>
	<path fill="#00080D" d="M35.83,3h-0.084h-3.258H7.427H5.255h-1.17C3.751,3,3.5,3.251,3.5,3.584v6.767
		c0,0.336,0.251,0.586,0.584,0.586H7.51c0.335,0,0.585-0.25,0.585-0.586V7.51h23.808v2.84c0,0.336,0.251,0.586,0.67,0.586h3.257
		c0.334,0,0.585-0.25,0.585-0.586V6.927V3.501C36.415,3.166,36.164,3,35.83,3z"/>
	<path fill="#00080D" d="M35.83,29.147h-3.257c-0.334,0-0.585,0.251-0.585,0.586v2.757H8.096v-2.841c0-0.335-0.25-0.586-0.668-0.586
		H4.168c-0.334,0-0.585,0.251-0.585,0.669v6.682C3.583,36.75,3.834,37,4.168,37h1.17h2.256h25.063h3.172h0.083
		c0.336,0,0.587-0.251,0.587-0.586v-6.682C36.415,29.398,36.164,29.147,35.83,29.147z"/>
	<path fill="#00080D" d="M15.949,21.629c0,0.335-0.251,0.584-0.585,0.584h-4.428c-0.334,0-0.585-0.25-0.585-0.584V18.37
		c0-0.333,0.25-0.584,0.585-0.584h4.428c0.334,0,0.585,0.251,0.585,0.584V21.629z"/>
	<path fill="#00080D" d="M15.949,28.396c0,0.334-0.251,0.584-0.585,0.584h-4.428c-0.334,0-0.585-0.25-0.585-0.584v-3.258
		c0-0.335,0.25-0.585,0.585-0.585h4.428c0.334,0,0.585,0.25,0.585,0.585V28.396z"/>
</g>
</svg>
