<?xml version="1.0" encoding="utf-8"?>
<!-- Generator: Adobe Illustrator 15.1.0, SVG Export Plug-In . SVG Version: 6.00 Build 0)  -->
<!DOCTYPE svg PUBLIC "-//W3C//DTD SVG 1.1//EN" "http://www.w3.org/Graphics/SVG/1.1/DTD/svg11.dtd">
<svg version="1.1" xmlns="http://www.w3.org/2000/svg" xmlns:xlink="http://www.w3.org/1999/xlink"
	 x="0px" y="0px" viewBox="0 0 40 40" enable-background="new 0 0 40 40" xml:space="preserve">
<path fill="#00080D" d="M36,22.893L36,22.893V15.18l-8.79,7.635h-0.232V15.18l-8.788,7.635l0,0V6.777
	c0-1.312-3.008-2.701-6.941-2.701C7.316,4.076,4,5.387,4,6.777v29.147h14.034l0,0H36V22.893z M11.248,8.086
	c-2.853,0-5.167-0.693-5.167-1.464c0-0.772,2.313-1.465,5.167-1.465c2.853,0,5.166,0.616,5.166,1.465
	C16.414,7.393,14.101,8.086,11.248,8.086z M26.362,30.835h-3.548v-3.549h3.548V30.835z M20.193,30.835h-3.548v-3.549h3.548V30.835z
	 M29.137,30.835v-3.549h3.547v3.549H29.137z"/>
</svg>
