<?xml version="1.0" encoding="utf-8"?>
<!-- Generator: Adobe Illustrator 15.1.0, SVG Export Plug-In . SVG Version: 6.00 Build 0)  -->
<!DOCTYPE svg PUBLIC "-//W3C//DTD SVG 1.1//EN" "http://www.w3.org/Graphics/SVG/1.1/DTD/svg11.dtd">
<svg version="1.1" xmlns="http://www.w3.org/2000/svg" xmlns:xlink="http://www.w3.org/1999/xlink" x="0px" y="0px"
	 viewBox="0 0 40 40" enable-background="new 0 0 40 40" xml:space="preserve">
<path fill="#00080D" d="M23.093,9.41l-0.984-1.7c-0.375-0.647-1.088-1.055-1.836-1.055H5.107C3.953,6.655,3,7.607,3,8.763v1.088
	h20.466C23.299,9.749,23.195,9.578,23.093,9.41z M24.316,21.139l-6.018,8.603c-0.065,0.067-0.135,0.136-0.237,0.136
	c-0.035,0-0.103,0-0.136-0.034c-0.135-0.068-0.203-0.202-0.135-0.339l1.563-5.133h-3.501c-0.103,0-0.203-0.069-0.271-0.173
	c-0.035-0.102-0.035-0.201,0.034-0.304l5.847-8.5c0.068-0.068,0.138-0.137,0.239-0.137c0.031,0,0.066,0,0.134,0.035
	c0.137,0.068,0.204,0.203,0.137,0.339l-1.498,5.03h3.607c0.172,0,0.307,0.139,0.307,0.309
	C24.387,21.039,24.352,21.072,24.316,21.139z M35.674,10.939H3v20.298c0,1.155,0.952,2.107,2.107,2.107h29.785
	c1.155,0,2.108-0.952,2.108-2.107V12.879C37,12.028,36.456,11.278,35.674,10.939z"/>
</svg>
