<?xml version="1.0" encoding="utf-8"?>
<!-- Generator: Adobe Illustrator 15.1.0, SVG Export Plug-In . SVG Version: 6.00 Build 0)  -->
<!DOCTYPE svg PUBLIC "-//W3C//DTD SVG 1.1//EN" "http://www.w3.org/Graphics/SVG/1.1/DTD/svg11.dtd">
<svg version="1.1" xmlns="http://www.w3.org/2000/svg" xmlns:xlink="http://www.w3.org/1999/xlink"
	 x="0px" y="0px" viewBox="0 0 40 40" enable-background="new 0 0 40 40" xml:space="preserve">
<g>
	<circle fill="#00080D" cx="17.238" cy="8.259" r="3.294"/>
	<circle fill="#00080D" cx="24.781" cy="18.884" r="3.931"/>
	<circle fill="#00080D" cx="31.368" cy="30.572" r="3.081"/>
	<circle fill="#00080D" cx="19.15" cy="28.446" r="2.656"/>
	<circle fill="#00080D" cx="8.418" cy="20.372" r="2.656"/>
	<rect x="14.341" y="12.613" transform="matrix(-0.5751 -0.8181 0.8181 -0.5751 21.8682 38.2828)" fill="#00080D" width="13.07" height="1.699"/>
	<rect x="21.329" y="23.706" transform="matrix(-0.4969 -0.8678 0.8678 -0.4969 20.6387 61.0785)" fill="#00080D" width="13.39" height="1.702"/>
	<rect x="15.655" y="11.361" transform="matrix(-0.0828 -0.9966 0.9966 -0.0828 -1.5513 37.5502)" fill="#00080D" width="1.699" height="16.255"/>
	<rect x="20.968" y="18.04" transform="matrix(-0.8564 -0.5164 0.5164 -0.8564 28.3352 55.0133)" fill="#00080D" width="1.7" height="11.051"/>
	<path fill="#00080D" d="M36.469,3.053h-8.606c-0.318,0-0.531,0.212-0.531,0.638v3.081c0,0.318,0.213,0.531,0.531,0.531h4.888v4.781
		c0,0.318,0.212,0.531,0.638,0.531h3.081c0.319,0,0.531-0.213,0.531-0.531v-8.5C37,3.266,36.788,3.053,36.469,3.053z"/>
	<path fill="#00080D" d="M3.531,36.946h8.606c0.319,0,0.531-0.212,0.531-0.639v-3.08c0-0.318-0.212-0.531-0.531-0.531H7.25v-4.781
		c0-0.318-0.212-0.531-0.637-0.531H3.531C3.212,27.384,3,27.597,3,27.915v8.5C3,36.734,3.212,36.946,3.531,36.946z"/>
</g>
</svg>
