<?xml version="1.0" encoding="utf-8"?>
<!-- Generator: Adobe Illustrator 15.1.0, SVG Export Plug-In . SVG Version: 6.00 Build 0)  -->
<!DOCTYPE svg PUBLIC "-//W3C//DTD SVG 1.1//EN" "http://www.w3.org/Graphics/SVG/1.1/DTD/svg11.dtd">
<svg version="1.1" xmlns="http://www.w3.org/2000/svg" xmlns:xlink="http://www.w3.org/1999/xlink"
	 x="0px" y="0px" viewBox="0 0 40 40" enable-background="new 0 0 40 40" xml:space="preserve">
<g>
	<path fill="#00080D" d="M38.754,18.872l-1.84-1.84l-8.189-7.953c-0.356-0.356-0.892-0.356-1.307,0
		c-0.356,0.356-0.475,1.009,0,1.365l8.606,8.428c0.356,0.356,0.356,1.01,0,1.365l-8.783,8.725c-0.356,0.356-0.356,1.01,0,1.366
		c0.355,0.356,1.008,0.297,1.305,0l8.131-8.072c0,0,0,0,0.061-0.06l2.018-1.959C39.11,19.881,39.052,19.228,38.754,18.872z"/>
	<path fill="#00080D" d="M4.153,20.237c-0.356-0.356-0.356-1.009,0-1.365l8.429-8.428c0.473-0.356,0.354-1.009,0-1.365
		c-0.417-0.356-0.95-0.356-1.306,0l-8.19,7.953l-1.841,1.841c-0.297,0.356-0.356,1.008,0,1.364l1.841,2.078
		c0.059,0.06,0.059,0.06,0.059,0.06l8.309,7.953c0.297,0.296,0.95,0.355,1.306,0c0.356-0.356,0.356-1.01,0-1.366L4.153,20.237z"/>
	<polygon fill="#00080D" points="29.496,14.303 21.543,14.303 29.259,2.492 17.685,2.492 11.454,20.06 19.051,20.119 13.115,37.508 
			"/>
</g>
</svg>
