<?xml version="1.0" encoding="utf-8"?>
<!-- Generator: Adobe Illustrator 15.1.0, SVG Export Plug-In . SVG Version: 6.00 Build 0)  -->
<!DOCTYPE svg PUBLIC "-//W3C//DTD SVG 1.1//EN" "http://www.w3.org/Graphics/SVG/1.1/DTD/svg11.dtd">
<svg version="1.1" xmlns="http://www.w3.org/2000/svg" xmlns:xlink="http://www.w3.org/1999/xlink" x="0px" y="0px"
	viewBox="110 110 40 40" enable-background="new 110 110 40 40" xml:space="preserve">
<g>
	<path fill="#00080D" d="M144.601,135.552l1.064-2.434l4.335-1.521v-3.499l-0.457-0.151l-3.802-1.293l-1.065-2.434l1.978-4.106l0,0
		l-2.434-2.434l-0.532,0.305l-3.574,1.825l-2.433-1.065l-1.598-4.183h-3.574l-0.151,0.457l-1.293,3.726l-2.433,1.065l-4.184-1.825
		l-2.434,2.434l0.229,0.456l1.141,2.129c1.978-1.141,4.106-1.597,6.388-1.597c3.118,0.152,6.008,1.293,8.213,3.346
		c0.456,0.381,1.064,0.685,1.521,1.293c0.228,0.229,0.456,0.608,0.607,0.912c1.521,2.662,0.913,6.008-1.597,7.985
		c-1.825,1.521-4.41,1.749-6.388,0.912c-0.228-0.151-0.38-0.151-0.456-0.228l0,0l0,0c-0.456-0.228-0.988-0.608-1.368-0.988
		c-0.152,0-0.229-0.152-0.457-0.152c-0.456,0-1.064,0.228-1.368,0.608l-0.152,0.151l0,0c-1.521,1.521-3.27,2.662-5.095,3.271
		l-1.217,1.293l2.357,2.357l0.152,0.151l0.456-0.228l3.574-1.825l2.433,0.988l1.369,4.183h3.574l0.151-0.456l1.293-3.727
		l2.434-1.064l4.183,1.825l2.434-2.434v-0.532L144.601,135.552z"/>
	<path fill="#00080D" d="M123.155,129.392L123.155,129.392L123.155,129.392c-2.737,2.891-7.071,2.891-9.733-0.152
		c-0.229-0.38-0.912-0.38-1.141,0c-0.152,0.152-0.229,0.381-0.229,0.609c0,0.228,0.152,0.456,0.229,0.607
		c3.27,3.574,8.593,3.727,11.939,0.229v-0.151l0,0c2.737-2.738,6.995-2.738,9.581,0.228c0.38,0.38,0.913,0.38,1.141,0
		c0.152-0.151,0.229-0.381,0.229-0.608c0-0.229-0.152-0.456-0.229-0.608C131.824,125.97,126.502,125.894,123.155,129.392z"/>
	<path fill="#00080D" d="M129.087,130.837c-1.521,0-2.737,0.456-3.802,1.597l-0.152,0.152l-0.152,0.152
		c-1.825,1.977-4.41,3.042-6.996,2.89c-2.661,0-5.019-1.293-6.844-3.271c-0.381-0.38-0.913-0.38-1.141,0c0,0.152,0,0.381,0,0.608
		c0,0.229,0.151,0.457,0.228,0.608c2.13,2.357,4.943,3.727,7.985,3.727c3.042,0.152,5.779-1.141,8.137-3.498l0.152-0.152
		l0.151-0.151c0.685-0.685,1.598-1.142,2.662-1.142s1.824,0.457,2.661,1.293c0.38,0.381,0.912,0.381,1.141,0
		c0.152-0.151,0.229-0.38,0.229-0.608c0-0.228-0.152-0.456-0.229-0.608C131.977,131.445,130.607,130.837,129.087,130.837z"/>
	<path fill="#00080D" d="M137.224,126.578c-2.129-2.357-5.019-3.727-7.984-3.727s-5.779,1.142-8.137,3.498l-0.152,0.152
		l-0.152,0.152c-0.684,0.685-1.597,1.141-2.661,1.141s-1.749-0.532-2.586-1.293c-0.38-0.38-0.912-0.38-1.141,0
		c-0.151,0.152-0.228,0.38-0.228,0.608s0.151,0.456,0.228,0.608c1.064,1.141,2.357,1.749,3.727,1.749
		c1.521,0,2.737-0.456,3.802-1.597l0.152-0.152c0,0,0.152,0,0.152-0.151c1.825-1.978,4.411-3.042,6.996-3.042
		c2.661,0,5.019,1.293,6.691,3.27c0.381,0.38,0.913,0.38,1.142,0c0.151-0.151,0.228-0.38,0.228-0.608
		C137.452,126.958,137.3,126.73,137.224,126.578z"/>
</g>
</svg>
