<?xml version="1.0" encoding="utf-8"?>
<!-- Generator: Adobe Illustrator 15.1.0, SVG Export Plug-In . SVG Version: 6.00 Build 0)  -->
<!DOCTYPE svg PUBLIC "-//W3C//DTD SVG 1.1//EN" "http://www.w3.org/Graphics/SVG/1.1/DTD/svg11.dtd">
<svg version="1.1" xmlns="http://www.w3.org/2000/svg" xmlns:xlink="http://www.w3.org/1999/xlink" x="0px" y="0px"
	 viewBox="0 0 40 40" enable-background="new 0 0 40 40" xml:space="preserve">
<path fill="#00080D" d="M30.973,27.101c-0.391,0-0.706,0.144-0.95,0.438c-0.243,0.297-0.348,0.687-0.348,1.171
	c0,0.493,0.122,0.875,0.348,1.172c0.244,0.294,0.538,0.438,0.908,0.438c0.385,0,0.681-0.145,0.93-0.418
	c0.221-0.297,0.343-0.681,0.343-1.171c0-0.506-0.122-0.924-0.343-1.219C31.654,27.244,31.357,27.101,30.973,27.101z M37.29,19.653
	l-0.031,0.09c-0.013,0.033-0.03,0.063-0.043,0.085v0.011c-0.021,0.026-0.042,0.047-0.059,0.079c0,0,0,0.011-0.011,0.011
	c-0.021,0.031-0.042,0.053-0.074,0.079l-0.012,0.011c-0.02,0.031-0.054,0.053-0.077,0.083l-0.012,0.012
	c-0.032,0.021-0.063,0.047-0.097,0.067l-0.01,0.012c-0.027,0.02-0.059,0.053-0.102,0.074l-0.009,0.01
	c-0.043,0.021-0.068,0.048-0.111,0.068l-0.011,0.011c-0.043,0.021-0.079,0.052-0.122,0.074c0,0-0.01,0-0.01,0.01
	c-0.054,0.016-0.091,0.05-0.144,0.068c-0.306,0.154-0.681,0.286-1.113,0.405c-0.005,0-0.017,0-0.017,0.015
	c-0.054,0.021-0.114,0.031-0.174,0.041c-0.02,0.011-0.042,0.011-0.063,0.019c-0.046,0.015-0.1,0.033-0.152,0.044
	c-0.031,0.012-0.048,0.012-0.078,0.017l-0.153,0.032c-0.032,0.011-0.063,0.011-0.101,0.019c-0.053,0.013-0.104,0.021-0.146,0.033
	c-0.036,0.011-0.068,0.011-0.111,0.021c-0.048,0.011-0.089,0.021-0.141,0.031c-0.043,0.006-0.08,0.006-0.123,0.017
	c-0.053,0.01-0.09,0.021-0.143,0.021c-0.041,0.011-0.078,0.011-0.132,0.021c-0.053,0.011-0.09,0.011-0.142,0.022
	c-0.044,0.011-0.096,0.011-0.145,0.021c-0.052,0.009-0.094,0.009-0.141,0.019c-0.054,0.013-0.1,0.013-0.143,0.021
	c-0.054,0.006-0.095,0.006-0.143,0.016c-0.054,0.011-0.104,0.011-0.152,0.021c-0.053,0-0.096,0.01-0.143,0.01
	c-0.053,0-0.111,0.011-0.164,0.011c-0.054,0-0.095,0.014-0.143,0.014c-0.053,0-0.111,0.009-0.175,0.009
	c-0.052,0-0.089,0.01-0.142,0.01c-0.064,0-0.121,0.013-0.175,0.013c-0.041,0-0.09,0-0.132,0.011c-0.063,0-0.121,0.012-0.195,0.012
	h-0.133c-0.067,0-0.142,0-0.21,0.011H30.03c-0.062,0-0.131,0-0.194-0.011c-0.048,0-0.09,0-0.132-0.012
	c-0.06,0-0.12-0.011-0.175-0.011c-0.048,0-0.089-0.013-0.143-0.013c-0.047,0-0.111-0.01-0.164-0.01c-0.047,0-0.09-0.009-0.142-0.009
	c-0.049,0-0.101-0.014-0.164-0.014c-0.048,0-0.091-0.011-0.143-0.011c-0.048,0-0.1-0.01-0.153-0.021
	c-0.047-0.011-0.099-0.011-0.143-0.021c-0.047-0.006-0.09-0.006-0.142-0.015c-0.049-0.013-0.101-0.013-0.144-0.022
	c-0.036-0.009-0.091-0.009-0.131-0.019c-0.049-0.011-0.101-0.011-0.144-0.022c-0.042-0.009-0.079-0.011-0.121-0.021
	c-0.053-0.011-0.1-0.021-0.152-0.021c-0.043-0.01-0.08-0.01-0.11-0.019l-0.154-0.026c-0.041-0.011-0.074-0.011-0.098-0.022
	l-0.154-0.031c-0.031-0.01-0.063-0.01-0.095-0.019l-0.153-0.033c-0.031-0.01-0.049-0.01-0.079-0.017
	c-0.054-0.012-0.111-0.03-0.165-0.041c-0.021,0-0.04-0.012-0.062-0.012c-0.059-0.011-0.122-0.031-0.169-0.054
	c-0.013,0-0.021,0-0.021-0.009c-0.57-0.165-1.05-0.354-1.408-0.571c-0.043-0.032-0.08-0.054-0.121-0.08h-0.011
	c-0.041-0.031-0.068-0.053-0.109-0.084l-0.012-0.01c-0.031-0.027-0.063-0.049-0.091-0.079l-0.01-0.013
	c-0.03-0.032-0.063-0.053-0.085-0.084l-0.011-0.005c-0.031-0.031-0.048-0.053-0.068-0.084v-0.011
	c-0.021-0.032-0.043-0.059-0.063-0.078v-0.011c-0.021-0.031-0.032-0.064-0.054-0.096l-0.026-0.089
	c-0.02-0.064-0.031-0.111-0.031-0.174c0-1.072,2.925-1.974,6.541-1.974c3.62,0,6.544,0.887,6.544,1.974
	C37.317,19.543,37.306,19.589,37.29,19.653z M37.194,31.201h-2.976v-5.008h1.124v4.08h1.852V31.201z M32.266,31.914l-0.665-0.687
	c-0.164,0.043-0.406,0.074-0.681,0.074c-0.703,0-1.293-0.251-1.752-0.701c-0.439-0.472-0.688-1.074-0.688-1.837
	c0-0.787,0.228-1.414,0.688-1.906c0.47-0.491,1.048-0.732,1.804-0.732c0.702,0,1.293,0.241,1.73,0.701
	c0.439,0.458,0.659,1.07,0.659,1.857c0,0.781-0.22,1.414-0.681,1.905l-0.1,0.101l1.271,1.223h-1.587V31.914z M27.854,30.469
	c-0.106,0.189-0.249,0.341-0.438,0.464c-0.174,0.12-0.392,0.194-0.634,0.248c-0.241,0.049-0.491,0.069-0.754,0.069
	c-0.266,0-0.538-0.021-0.786-0.069c-0.254,0-0.466-0.083-0.639-0.174v-1.125c0.189,0.175,0.416,0.294,0.658,0.39
	c0.248,0.069,0.492,0.121,0.702,0.121c0.148,0,0.269-0.021,0.37-0.052c0.099-0.021,0.194-0.049,0.263-0.101
	c0.074-0.052,0.122-0.102,0.142-0.176c0.022-0.067,0.055-0.119,0.055-0.188c0-0.106-0.021-0.195-0.074-0.27
	c-0.048-0.068-0.121-0.143-0.222-0.223c-0.1-0.072-0.228-0.12-0.348-0.194c-0.121-0.047-0.264-0.121-0.438-0.195
	c-0.384-0.169-0.682-0.363-0.876-0.582c-0.195-0.241-0.297-0.505-0.297-0.854c0-0.262,0.055-0.484,0.144-0.657
	c0.104-0.196,0.248-0.349,0.416-0.472c0.175-0.12,0.391-0.226,0.633-0.263c0.243-0.053,0.492-0.074,0.755-0.074
	c0.265,0,0.493,0.021,0.682,0.054c0.195,0.021,0.391,0.068,0.564,0.143v1.05c-0.074-0.054-0.174-0.105-0.269-0.143
	c-0.089-0.043-0.191-0.074-0.296-0.105c-0.1-0.015-0.222-0.049-0.317-0.067c-0.1-0.021-0.19-0.021-0.296-0.021
	c-0.123,0-0.243,0-0.343,0.021c-0.099,0.019-0.194,0.053-0.264,0.099c-0.074,0.054-0.128,0.105-0.175,0.143
	c-0.054,0.074-0.054,0.121-0.054,0.195c0,0.066,0.021,0.141,0.076,0.221c0.046,0.074,0.098,0.126,0.189,0.193
	c0.074,0.056,0.172,0.122,0.295,0.178c0.128,0.052,0.248,0.119,0.392,0.175c0.188,0.066,0.384,0.172,0.538,0.263
	c0.174,0.099,0.295,0.195,0.415,0.315c0.121,0.123,0.195,0.243,0.264,0.418c0.054,0.141,0.105,0.315,0.105,0.538
	C27.996,30.025,27.943,30.271,27.854,30.469z M30.778,16.677c-4.534,0-8.224,1.335-8.224,2.976v15.834
	c0,1.62,3.626,2.956,8.102,2.977v0.011h0.122c4.542,0,8.222-1.345,8.222-2.976V19.654C39,17.991,35.311,16.677,30.778,16.677z
	 M17.571,26.613h3.637v-3.639h-3.637V26.613z M12.442,21.681h3.641v-3.637h-3.641V21.681z M12.442,26.613h3.641v-3.639h-3.641
	V26.613z M10.151,16.751h3.637v-3.642h-3.637V16.751z M7.266,21.681h3.64v-3.637h-3.64V21.681z M7.266,26.613h3.64v-3.639h-3.64
	V26.613z M24.185,16.983c0.771-0.338,1.689-0.592,2.687-0.776v-4.85h2.681V9.136L15.329,1.524L1,9.134v2.223h2.924v15.378h2.449
	V11.357h17.812L24.185,16.983L24.185,16.983z"/>
</svg>
