<?xml version="1.0" encoding="utf-8"?>
<!-- Generator: Adobe Illustrator 15.1.0, SVG Export Plug-In . SVG Version: 6.00 Build 0)  -->
<!DOCTYPE svg PUBLIC "-//W3C//DTD SVG 1.1//EN" "http://www.w3.org/Graphics/SVG/1.1/DTD/svg11.dtd">
<svg version="1.1" xmlns="http://www.w3.org/2000/svg" xmlns:xlink="http://www.w3.org/1999/xlink"
	 x="0px" y="0px" viewBox="0 0 40 40" enable-background="new 0 0 40 40" xml:space="preserve">
<g>
	<path fill="#00080D" d="M29.524,3.516H10.476L1,20l9.476,16.484h19.048L39,20L29.524,3.516z M29.623,27.402
		c0,1.382-1.184,2.566-2.564,2.566H13.041c-1.381,0-2.565-1.185-2.565-2.566V12.696c0-1.382,1.184-2.567,2.565-2.567h10.364
		c0.986,0,1.974,0,1.974,0h0.297l3.947,3.948v2.073V27.402L29.623,27.402z"/>
	<path fill="#00080D" d="M18.569,22.664c0-0.196-0.098-0.297-0.098-0.393c0-0.1-0.099-0.199-0.199-0.298
		c-0.098-0.1-0.098-0.1-0.197-0.1c-0.099,0-0.198,0-0.297,0c-0.197,0-0.297,0-0.395,0.1c-0.098,0.099-0.198,0.197-0.297,0.394
		c-0.098,0.198-0.098,0.396-0.098,0.593c0,0.198,0,0.494,0,0.889s0,0.691,0,0.986c0,0.296,0.098,0.494,0.197,0.593
		c0.1,0.197,0.198,0.297,0.296,0.297c0.1,0.099,0.199,0.099,0.396,0.099c0.099,0,0.198,0,0.297-0.099
		c0.098,0,0.198-0.099,0.198-0.197c0.099-0.1,0.099-0.198,0.197-0.297c0-0.099,0.099-0.197,0.099-0.396c0-0.098,0-0.297,0.099-0.493
		c0-0.198,0-0.396,0-0.592c0-0.297,0-0.494,0-0.692C18.569,22.96,18.569,22.863,18.569,22.664z"/>
	<path fill="#00080D" d="M23.011,14.966c0-0.197-0.1-0.297-0.1-0.396c0-0.098-0.099-0.197-0.196-0.297
		c-0.1-0.098-0.1-0.098-0.199-0.098c-0.098,0-0.196,0-0.296,0c-0.197,0-0.296,0-0.395,0.098c-0.1,0.1-0.197,0.199-0.296,0.396
		c-0.1,0.196-0.1,0.396-0.1,0.592c0,0.198,0,0.495,0,0.889c0,0.396,0,0.691,0,0.987c0,0.295,0.1,0.493,0.196,0.592
		c0.1,0.197,0.198,0.297,0.298,0.297c0.099,0.099,0.197,0.099,0.394,0.099c0.1,0,0.198,0,0.297-0.099
		c0.099,0,0.197-0.099,0.197-0.197c0.1-0.1,0.1-0.198,0.198-0.298c0-0.099,0.098-0.197,0.098-0.394c0-0.1,0-0.297,0.1-0.494
		c0-0.198,0-0.396,0-0.592c0-0.296,0-0.494,0-0.691C23.107,15.36,23.107,15.162,23.011,14.966z"/>
	<path fill="#00080D" d="M24.984,11.511c-0.395,0-0.986,0-1.579,0H13.041c-0.69,0-1.185,0.494-1.185,1.184v14.707
		c0,0.69,0.494,1.184,1.185,1.184h14.016c0.593,0,1.185-0.493,1.185-1.184V14.769h-3.159v-3.258H24.984z M16.2,14.473v-0.099v-0.099
		c0,0,0,0,0.098-0.099l1.186-0.791c0,0,0,0,0.099,0h0.098h0.099c0.1,0,0.1,0,0.198,0s0.198,0,0.297,0c0.098,0,0.098,0,0.197,0h0.099
		c0,0,0,0,0,0.1v4.639h0.888h0.1c0,0,0,0,0.099,0.099c0.098,0.098,0,0.098,0,0.098c0,0.1,0,0.1,0,0.199c0,0.098,0,0.196,0,0.196
		c0,0.1,0,0.1,0,0.1s0,0.099-0.099,0.099c0,0,0,0-0.1,0h-3.06c0,0,0,0-0.098,0c0,0,0,0-0.099-0.099v-0.1c0-0.099,0-0.099,0-0.196
		c0-0.1,0-0.199,0-0.199c0-0.098,0-0.098,0-0.098s0-0.099,0.099-0.099c0,0,0,0,0.098,0h1.085v-3.651l-0.888,0.493
		c-0.099,0-0.099,0.099-0.198,0.099H16.3c0,0,0-0.099-0.099-0.099c0-0.099,0-0.099,0-0.297C16.2,14.57,16.2,14.473,16.2,14.473z
		 M19.655,25.033c-0.098,0.395-0.197,0.691-0.395,0.89c-0.197,0.296-0.396,0.493-0.592,0.592c-0.297,0.099-0.594,0.196-0.987,0.196
		c-0.395,0-0.691-0.098-0.987-0.196c-0.297-0.1-0.494-0.297-0.594-0.592c-0.098-0.296-0.296-0.594-0.296-0.89
		c-0.099-0.395-0.099-0.79-0.099-1.184c0-0.494,0-0.89,0.099-1.186c0.1-0.393,0.198-0.69,0.396-0.889
		c0.197-0.197,0.395-0.493,0.592-0.592c0.296-0.098,0.593-0.197,0.987-0.197c0.394,0,0.691,0.1,0.987,0.197
		c0.296,0.099,0.495,0.297,0.592,0.592c0.099,0.297,0.296,0.593,0.296,0.889c0.099,0.396,0.099,0.79,0.099,1.186
		C19.753,24.342,19.753,24.737,19.655,25.033z M24.097,26.415c0,0.1,0,0.1,0,0.1s0,0.099-0.099,0.099c0,0,0,0-0.098,0H20.84
		c0,0,0,0-0.1,0c0,0,0,0-0.099-0.099v-0.1c0-0.099,0-0.099,0-0.197s0-0.197,0-0.197c0-0.1,0-0.1,0-0.1s0-0.099,0.099-0.099
		c0,0,0,0,0.1,0h1.086V22.17l-0.889,0.494c-0.099,0-0.099,0.099-0.197,0.099h-0.1c0,0,0-0.099-0.099-0.099c0-0.099,0-0.099,0-0.297
		c0-0.098,0-0.098,0-0.197v-0.1v-0.098c0,0,0,0,0.099-0.099l1.186-0.79c0,0,0,0,0.099,0h0.099h0.099c0.1,0,0.1,0,0.198,0
		c0.098,0,0.197,0,0.297,0c0.098,0,0.098,0,0.196,0h0.1c0,0,0,0,0,0.099v4.64h0.89H24c0,0,0,0,0.099,0.099v0.1
		c0,0.099,0,0.099,0,0.196S24.097,26.415,24.097,26.415z M24.195,17.333c-0.099,0.396-0.197,0.692-0.396,0.891
		c-0.197,0.296-0.395,0.492-0.592,0.592c-0.297,0.099-0.592,0.197-0.987,0.197c-0.395,0-0.691-0.099-0.986-0.197
		c-0.297-0.1-0.494-0.296-0.593-0.592c-0.098-0.198-0.296-0.594-0.296-0.891c0-0.296-0.099-0.788-0.099-1.184
		c0-0.493,0-0.889,0.099-1.184c0.099-0.396,0.199-0.692,0.395-0.889c0.197-0.297,0.396-0.494,0.592-0.592
		c0.297-0.1,0.592-0.198,0.987-0.198s0.691,0.099,0.987,0.198c0.295,0.099,0.493,0.296,0.592,0.592
		c0.099,0.297,0.297,0.592,0.297,0.889c0.099,0.395,0.099,0.79,0.099,1.184C24.294,16.644,24.195,17.038,24.195,17.333z"/>
</g>
</svg>
