<?xml version="1.0" encoding="utf-8"?>
<!-- Generator: Adobe Illustrator 15.1.0, SVG Export Plug-In . SVG Version: 6.00 Build 0)  -->
<!DOCTYPE svg PUBLIC "-//W3C//DTD SVG 1.1//EN" "http://www.w3.org/Graphics/SVG/1.1/DTD/svg11.dtd">
<svg version="1.1" xmlns="http://www.w3.org/2000/svg" xmlns:xlink="http://www.w3.org/1999/xlink" x="0px" y="0px"
	 viewBox="0 0 40 40" enable-background="new 0 0 40 40" xml:space="preserve">
<path fill="#00080D" d="M34.738,17.873c0.08-0.552,0.08-1.34,0.08-1.892c0-6.701-5.519-12.455-12.22-12.455h-0.078
	c-4.81,0-9.144,3.074-11.115,7.41c-0.552-0.079-1.104,0-1.656,0C4.862,10.936,1,14.955,1,19.764s3.942,8.75,8.829,8.75h4.494
	c0.158,0.63,0.551,1.183,1.024,1.656c1.577,1.576,4.178,1.576,5.756,0c1.575-1.577,1.575-4.1,0-5.677
	c-1.578-1.577-4.1-1.577-5.756,0c-0.394,0.393-0.709,0.708-0.867,1.262l-4.573-0.158l0,0c-3.389,0-6.07-2.523-6.148-5.912
	c0-3.389,2.759-6.07,6.148-6.07c0.631,0,1.341,0.158,1.972,0.393l1.262,0.473l0.393-1.262c1.262-3.941,4.967-6.542,9.066-6.542
	c5.281,0,9.538,4.257,9.538,9.539c0,0.868-0.079,1.735-0.315,2.522l-0.552,1.893l1.972-0.238c0.157,0,0.235,0,0.313,0
	c1.499,0,2.759,1.262,2.759,2.76c0,1.417-1.024,2.602-2.443,2.759c0,0-6.542,0.078-6.937,0.078
	c-0.316-1.813-1.183-3.548-2.522-4.888c-1.655-1.734-3.941-2.681-6.386-2.681c-1.656,0-3.231,0.473-4.651,1.262l1.417,2.286
	c0.946-0.631,2.13-0.946,3.311-0.946c1.656,0,3.312,0.631,4.494,1.893c1.182,1.182,1.893,2.759,1.893,4.492
	c0,1.655-0.631,3.311-1.893,4.493c-1.182,1.182-2.759,1.891-4.494,1.891c-1.183,0-2.365-0.315-3.311-0.946l-1.417,2.288
	c1.417,0.866,3.075,1.34,4.729,1.34c2.444,0,4.652-0.946,6.385-2.682c1.419-1.417,2.287-3.231,2.522-5.123
	c0.316,0,6.938-0.079,6.938-0.079h0.079c2.836-0.237,4.967-2.602,4.967-5.44C39.074,20.553,37.261,18.346,34.738,17.873z"/>
</svg>
