<?xml version="1.0" encoding="utf-8"?>
<!-- Generator: Adobe Illustrator 15.1.0, SVG Export Plug-In . SVG Version: 6.00 Build 0)  -->
<!DOCTYPE svg PUBLIC "-//W3C//DTD SVG 1.1//EN" "http://www.w3.org/Graphics/SVG/1.1/DTD/svg11.dtd">
<svg version="1.1" id="link_byps_pgw" xmlns="http://www.w3.org/2000/svg" xmlns:xlink="http://www.w3.org/1999/xlink" x="0px" viewBox="0 0 32 32" enable-background="new 0 0 32 32" xml:space="preserve">
<path fill-rule="evenodd" clip-rule="evenodd" fill="#FFFFFF" d="M28.201,9.666l-0.666,2.392c-2.153-4.199-6.512-7.078-11.556-7.078
	c-7.18,0-13,5.82-13,13c0,0.424,0.024,0.842,0.063,1.255h2.055c-0.047-0.412-0.077-0.83-0.077-1.255
	c0-6.053,4.906-10.958,10.958-10.958c4.461,0,8.29,2.671,9.999,6.498l-2.993-0.834l-0.459,1.649l4.061,1.131v0l1.74,0.484l1.615-5.8
	L28.201,9.666z"/>
<path fill-rule="evenodd" clip-rule="evenodd" fill="#FFFFFF" d="M4.514,17.977C2.573,17.977,1,19.55,1,21.49
	s1.573,3.514,3.514,3.514s3.514-1.573,3.514-3.514S6.454,17.977,4.514,17.977z M4.506,22.977c-0.82,0-1.484-0.664-1.484-1.483
	c0-0.82,0.665-1.484,1.484-1.484s1.484,0.664,1.484,1.484C5.99,22.313,5.326,22.977,4.506,22.977z"/>
<path fill-rule="evenodd" clip-rule="evenodd" fill="#FFFFFF" d="M27.514,17.977c-1.94,0-3.514,1.573-3.514,3.514
	s1.573,3.514,3.514,3.514s3.514-1.573,3.514-3.514S29.454,17.977,27.514,17.977z M27.506,22.977c-0.819,0-1.484-0.664-1.484-1.483
	c0-0.82,0.665-1.484,1.484-1.484c0.82,0,1.484,0.664,1.484,1.484C28.99,22.313,28.326,22.977,27.506,22.977z"/>
<g>
	<rect x="9" y="21" fill="#FFFFFF" width="2" height="1"/>
	<rect x="12" y="21" fill="#FFFFFF" width="2" height="1"/>
	<rect x="21" y="21" fill="#FFFFFF" width="2" height="1"/>
	<rect x="18" y="21" fill="#FFFFFF" width="2" height="1"/>
	<rect x="15" y="21" fill="#FFFFFF" width="2" height="1"/>
</g>
</svg>
