<?xml version="1.0" encoding="utf-8"?>
<!-- Generator: Adobe Illustrator 15.1.0, SVG Export Plug-In . SVG Version: 6.00 Build 0)  -->
<!DOCTYPE svg PUBLIC "-//W3C//DTD SVG 1.1//EN" "http://www.w3.org/Graphics/SVG/1.1/DTD/svg11.dtd">
<svg version="1.1" id="link_spb" xmlns="http://www.w3.org/2000/svg" xmlns:xlink="http://www.w3.org/1999/xlink" x="0px" y="0px" viewBox="0 0 32 32" enable-background="new 0 0 32 32" xml:space="preserve">
<path fill-rule="evenodd" clip-rule="evenodd" fill="#FFFFFF" d="M22.066,4.002H5.034L5.012,27.975h21.982V8.93L22.066,4.002z
	 M7.007,26L7.003,5.957H21v4.035h3.988V26H7.007z"/>
<path fill-rule="evenodd" clip-rule="evenodd" fill="#FFFFFF" d="M10.01,21.908h1.882c0.383-1.909,2.068-3.348,4.091-3.348
	c2.023,0,3.707,1.438,4.09,3.348h1.88c-0.294-2.146-1.709-3.933-3.642-4.742c0.963-0.716,1.595-1.854,1.595-3.146
	c0-2.173-1.761-3.934-3.933-3.934c-2.173,0-3.934,1.761-3.934,3.934c0,1.295,0.634,2.435,1.601,3.151
	C11.713,17.982,10.303,19.768,10.01,21.908z M15.976,11.99c1.121,0,2.03,0.909,2.03,2.03s-0.909,2.029-2.03,2.029
	c-1.121,0-2.03-0.908-2.03-2.029S14.855,11.99,15.976,11.99z"/>
</svg>
