<?xml version="1.0" encoding="utf-8"?>
<!-- Generator: Adobe Illustrator 15.1.0, SVG Export Plug-In . SVG Version: 6.00 Build 0)  -->
<!DOCTYPE svg PUBLIC "-//W3C//DTD SVG 1.1//EN" "http://www.w3.org/Graphics/SVG/1.1/DTD/svg11.dtd">
<svg version="1.1" id="link_sde" xmlns="http://www.w3.org/2000/svg" xmlns:xlink="http://www.w3.org/1999/xlink" x="0px" y="0px" viewBox="0 0 32 32" enable-background="new 0 0 32 32" xml:space="preserve">
<path fill-rule="evenodd" clip-rule="evenodd" fill="#FFFFFF" d="M10.879,15.975l4.593,4.593l6.193-6.193l-1.694-1.694l-4.499,4.498
	l-2.898-2.898L10.879,15.975z M27,8H15.015l-0.933-2c-0.515-1.104-1.828-2-2.933-2H5C3.896,4,3,4.896,3,6v18c0,1.104,0.896,2,2,2h22
	c1.104,0,2-0.896,2-2V10C29,8.896,28.104,8,27,8z M27,24H5V6h7.082l1.865,4H27V24z"/>
</svg>
