<?xml version="1.0" encoding="utf-8"?>
<!-- Generator: Adobe Illustrator 15.1.0, SVG Export Plug-In . SVG Version: 6.00 Build 0)  -->
<!DOCTYPE svg PUBLIC "-//W3C//DTD SVG 1.1//EN" "http://www.w3.org/Graphics/SVG/1.1/DTD/svg11.dtd">
<svg version="1.1" id="linked_bss" xmlns="http://www.w3.org/2000/svg" xmlns:xlink="http://www.w3.org/1999/xlink" x="0px" y="0px"
	 viewBox="0 0 32 32" enable-background="new 0 0 32 32" xml:space="preserve">
<path fill-rule="evenodd" clip-rule="evenodd" fill="#FEFEFF" d="M25.043,23.67c1.76-2.07,2.832-4.74,2.832-7.67
	c0-6.559-5.316-11.875-11.875-11.875c-1.263,0-2.479,0.201-3.621,0.566l0.791,1.727c0.898-0.265,1.846-0.413,2.83-0.413
	c5.52,0,9.994,4.475,9.994,9.994c0,2.589-0.994,4.938-2.608,6.711V19.05h-1.4v6.021h6.021v-1.4H25.043z M16,25.994
	c-5.52,0-9.994-4.475-9.994-9.994c0-2.589,0.993-4.939,2.609-6.713v3.658h1.388V6.971H4.028v1.387h2.905
	C5.188,10.424,4.125,13.083,4.125,16c0,6.559,5.316,11.875,11.875,11.875c1.287,0,2.523-0.211,3.685-0.59l-0.887-1.695
	C17.909,25.849,16.972,25.994,16,25.994z"/>
<polygon fill-rule="evenodd" clip-rule="evenodd" fill="#FEFEFF" points="20,13 20,11 17,11 17,9 15,9 15,11 12,11 12,17 18,17 
	18,19 12,19 12,21 15,21 15,23 17,23 17,21 20,21 20,15 14,15 14,13 "/>
</svg>
