<?xml version="1.0" encoding="utf-8"?>
<!-- Generator: Adobe Illustrator 15.1.0, SVG Export Plug-In . SVG Version: 6.00 Build 0)  -->
<!DOCTYPE svg PUBLIC "-//W3C//DTD SVG 1.1//EN" "http://www.w3.org/Graphics/SVG/1.1/DTD/svg11.dtd">
<svg version="1.1" id="linked_ums" xmlns="http://www.w3.org/2000/svg" xmlns:xlink="http://www.w3.org/1999/xlink" x="0px" y="0px"
	 viewBox="0 0 32 32" enable-background="new 0 0 32 32" xml:space="preserve">
<path fill-rule="evenodd" clip-rule="evenodd" fill="#FEFEFF" d="M6,9.488l8.586,7.101c0.793,0.622,2.057,0.622,2.85,0L26,9.495
	v5.162h2V8c0-1.104-0.896-2-2-2H6C4.896,6,4,6.896,4,8v15c0,1.104,0.896,2,2,2h11.656v-2H6V9.488z M24.915,8l-8.904,7.242L7.105,8
	H24.915z M30.989,22.988v-1.993H29.07c-0.107-0.423-0.283-0.815-0.506-1.177l1.364-1.364l-1.409-1.409l-1.369,1.369
	c-0.357-0.215-0.745-0.385-1.162-0.487v-1.924h-1.992v1.913c-0.424,0.101-0.817,0.27-1.18,0.485l-1.369-1.368l-1.409,1.409
	l1.356,1.356c-0.228,0.366-0.407,0.767-0.517,1.196h-1.892v1.993h1.871c0.103,0.437,0.277,0.844,0.502,1.217l-1.305,1.305
	l1.41,1.409l1.295-1.297c0.378,0.234,0.791,0.417,1.236,0.522v1.829h1.992v-1.84c0.439-0.108,0.846-0.291,1.218-0.523l1.319,1.318
	l1.408-1.408l-1.333-1.334c0.219-0.368,0.39-0.769,0.49-1.198H30.989z M25,24.165c-1.196,0-2.167-0.971-2.167-2.168
	S23.804,19.83,25,19.83c1.197,0,2.168,0.97,2.168,2.167S26.197,24.165,25,24.165z"/>
</svg>
