<?xml version="1.0" encoding="utf-8"?>
<!-- Generator: Adobe Illustrator 15.1.0, SVG Export Plug-In . SVG Version: 6.00 Build 0)  -->
<!DOCTYPE svg PUBLIC "-//W3C//DTD SVG 1.1//EN" "http://www.w3.org/Graphics/SVG/1.1/DTD/svg11.dtd">
<svg version="1.1" id="link_ofcs" xmlns="http://www.w3.org/2000/svg" xmlns:xlink="http://www.w3.org/1999/xlink" x="0px" y="0px" viewBox="0 0 32 32" enable-background="new 0 0 32 32" xml:space="preserve">
<path fill-rule="evenodd" clip-rule="evenodd" fill="#FFFFFF" d="M21.129,4.511c4.012,2.078,6.785,6.462,6.785,11.55
	c0,5.089-2.773,9.473-6.784,11.55c5.061-1.408,8.78-6.04,8.78-11.55C29.91,10.551,26.19,5.919,21.129,4.511z"/>
<path fill-rule="evenodd" clip-rule="evenodd" fill="#FFFFFF" d="M14,4.125C7.441,4.125,2.125,9.441,2.125,16
	S7.441,27.875,14,27.875S25.875,22.559,25.875,16S20.559,4.125,14,4.125z M14,25.994c-5.52,0-9.994-4.475-9.994-9.994
	S8.48,6.006,14,6.006S23.994,10.48,23.994,16S19.52,25.994,14,25.994z"/>
<polygon fill-rule="evenodd" clip-rule="evenodd" fill="#FFFFFF" points="18,13 18,11 15,11 15,9 13,9 13,11 10,11 10,17 16,17 
	16,19 10,19 10,21 13,21 13,23 15,23 15,21 18,21 18,15 12,15 12,13 "/>
</svg>
