<?xml version="1.0" encoding="utf-8"?>
<!-- Generator: Adobe Illustrator 15.1.0, SVG Export Plug-In . SVG Version: 6.00 Build 0)  -->
<!DOCTYPE svg PUBLIC "-//W3C//DTD SVG 1.1//EN" "http://www.w3.org/Graphics/SVG/1.1/DTD/svg11.dtd">
<svg version="1.1" id="linked_switch" xmlns="http://www.w3.org/2000/svg" xmlns:xlink="http://www.w3.org/1999/xlink" x="0px" y="0px"
	 viewBox="0 0 32 32" enable-background="new 0 0 32 32" xml:space="preserve">
<polygon fill="#FFFFFF" points="17.007,6.994 17.007,8.977 24.574,8.977 22.02,11.531 23.421,12.933 26.946,9.406 26.947,9.407 
	28.348,8.005 26.947,6.604 26.947,6.604 23.421,3.078 22.02,4.479 24.534,6.994 "/>
<polygon fill="#FFFFFF" points="17.007,18.994 17.007,20.977 24.574,20.977 22.02,23.531 23.421,24.933 26.946,21.406 
	26.947,21.407 28.348,20.005 26.947,18.604 23.421,15.078 22.02,16.479 24.534,18.994 "/>
<polygon fill="#FFFFFF" points="14.993,25.016 14.993,23.033 7.425,23.033 9.98,20.479 8.579,19.077 5.053,22.604 5.052,22.603 
	3.652,24.005 5.052,25.406 5.052,25.406 8.579,28.932 9.98,27.53 7.465,25.016 "/>
<polygon fill="#FFFFFF" points="14.993,13.016 14.993,11.033 7.425,11.033 9.98,8.479 8.579,7.077 5.053,10.604 5.052,10.603 
	3.652,12.005 5.052,13.406 8.579,16.932 9.98,15.53 7.465,13.016 "/>
</svg>
