<?xml version="1.0" encoding="utf-8"?>
<!-- Generator: Adobe Illustrator 15.1.0, SVG Export Plug-In . SVG Version: 6.00 Build 0)  -->
<!DOCTYPE svg PUBLIC "-//W3C//DTD SVG 1.1//EN" "http://www.w3.org/Graphics/SVG/1.1/DTD/svg11.dtd">
<svg version="1.1" id="link_pcrf" xmlns="http://www.w3.org/2000/svg" xmlns:xlink="http://www.w3.org/1999/xlink" x="0px" y="0px" viewBox="0 0 32 32" enable-background="new 0 0 32 32" xml:space="preserve">
<path fill-rule="evenodd" clip-rule="evenodd" fill="#FFFFFF" d="M22.989,15.988v-1.993h-1.92c-0.107-0.422-0.282-0.815-0.505-1.177
	l1.364-1.364l-1.409-1.409l-1.369,1.37c-0.357-0.216-0.745-0.385-1.162-0.488V9.003h-1.992v1.913c-0.423,0.1-0.817,0.27-1.18,0.486
	l-1.369-1.368l-1.409,1.409l1.357,1.357c-0.228,0.366-0.408,0.766-0.517,1.196h-1.892v1.993h1.871
	c0.102,0.437,0.277,0.844,0.501,1.217l-1.304,1.305l1.409,1.409l1.296-1.297c0.377,0.234,0.791,0.417,1.236,0.522v1.829h1.992v-1.84
	c0.439-0.108,0.846-0.291,1.218-0.523l1.319,1.318l1.408-1.409L20.6,17.186c0.22-0.368,0.39-0.768,0.49-1.197H22.989z M17,17.165
	c-1.197,0-2.167-0.971-2.167-2.168s0.97-2.168,2.167-2.168c1.197,0,2.168,0.971,2.168,2.168S18.197,17.165,17,17.165z"/>
<path fill-rule="evenodd" clip-rule="evenodd" fill="#FFFFFF" d="M6.986,3.995v14.972H1.992v3.675c0,5.215,5.415,5.334,5.418,5.334
	c0,0,0,0.001,0,0.001h12.977c3.649,0,6.608-2.958,6.608-6.607V3.995H6.986z M7,25.962c-1.656,0-3-1.342-3-3V21h3V25.962z M25,21.407
	c0,0.142-0.021,0.289-0.053,0.439c-0.246,2.153-1.95,3.843-4.109,4.067c-0.145,0.028-0.287,0.048-0.423,0.048H9.003V5.964H25V21.407
	z"/>
</svg>
