<?xml version="1.0" encoding="utf-8"?>
<!-- Generator: Adobe Illustrator 15.1.0, SVG Export Plug-In . SVG Version: 6.00 Build 0)  -->
<!DOCTYPE svg PUBLIC "-//W3C//DTD SVG 1.1//EN" "http://www.w3.org/Graphics/SVG/1.1/DTD/svg11.dtd">
<svg version="1.1" id="linked_pgw" xmlns="http://www.w3.org/2000/svg" xmlns:xlink="http://www.w3.org/1999/xlink" x="0px" y="0px"
	 viewBox="0 0 32 32" enable-background="new 0 0 32 32" xml:space="preserve">
<path fill-rule="evenodd" clip-rule="evenodd" fill="#FEFEFF" d="M8.186,9.061l0.023-0.02C8.1,8.734,8.029,8.408,8.029,8.063
	c0-1.626,1.318-2.943,2.943-2.943s2.943,1.317,2.943,2.943c0,0.347-0.071,0.675-0.181,0.984l0.015,0.012l2.057,0.53
	c0.161-0.481,0.255-0.991,0.255-1.526c0-2.809-2.277-5.086-5.086-5.086c-2.809,0-5.085,2.277-5.085,5.086
	c0,0.535,0.094,1.044,0.255,1.524L8.186,9.061z M26,16H12V8h-2v8H6c-1.104,0-2,0.896-2,2v7c0,1.104,0.896,2,2,2h20
	c1.104,0,2-0.896,2-2v-7C28,16.896,27.104,16,26,16z M26,25H6v-7h10v4h2v-4h3v4h2v-4h3V25z"/>
</svg>
