<?xml version="1.0" encoding="utf-8"?>
<!-- Generator: Adobe Illustrator 15.1.0, SVG Export Plug-In . SVG Version: 6.00 Build 0)  -->
<!DOCTYPE svg PUBLIC "-//W3C//DTD SVG 1.1//EN" "http://www.w3.org/Graphics/SVG/1.1/DTD/svg11.dtd">
<svg version="1.1" id="linked_tas" xmlns="http://www.w3.org/2000/svg" xmlns:xlink="http://www.w3.org/1999/xlink" x="0px" y="0px"
	 viewBox="0 0 32 32" enable-background="new 0 0 32 32" xml:space="preserve">
<g id="Phone_3">
	<g>
		<path fill-rule="evenodd" clip-rule="evenodd" fill="#FFFFFF" d="M28.551,7.829l-1.853-1.034c0,0-2.519-1.75-9.753-1.75h-1.113
			c-5.704,0-9.53,1.75-9.53,1.75L4.449,7.829c-2.28,1.234-1.089,4.238-1.089,4.238l0.451,0.943l7.127-2.073V8.843
			c1.069-0.329,3.009-0.836,4.895-0.836h1.336c0,0,2.916-0.135,4.842,0.743H22v2.188l7.08,2.228l0.56-1.098
			C29.64,12.067,30.83,9.063,28.551,7.829z M10.438,14.063c-0.829,0-1.5,0.672-1.5,1.5s0.671,1.5,1.5,1.5c0.828,0,1.5-0.672,1.5-1.5
			S11.266,14.063,10.438,14.063z M10.438,19.063c-0.829,0-1.5,0.672-1.5,1.5s0.671,1.5,1.5,1.5c0.828,0,1.5-0.672,1.5-1.5
			S11.266,19.063,10.438,19.063z M10.438,24.063c-0.829,0-1.5,0.672-1.5,1.5s0.671,1.5,1.5,1.5c0.828,0,1.5-0.672,1.5-1.5
			S11.266,24.063,10.438,24.063z M16.438,14.063c-0.829,0-1.5,0.672-1.5,1.5s0.671,1.5,1.5,1.5c0.828,0,1.5-0.672,1.5-1.5
			S17.266,14.063,16.438,14.063z M16.438,19.063c-0.829,0-1.5,0.672-1.5,1.5s0.671,1.5,1.5,1.5c0.828,0,1.5-0.672,1.5-1.5
			S17.266,19.063,16.438,19.063z M16.438,24.063c-0.829,0-1.5,0.672-1.5,1.5s0.671,1.5,1.5,1.5c0.828,0,1.5-0.672,1.5-1.5
			S17.266,24.063,16.438,24.063z M22.438,14.063c-0.828,0-1.5,0.672-1.5,1.5s0.672,1.5,1.5,1.5s1.5-0.672,1.5-1.5
			S23.266,14.063,22.438,14.063z M22.438,19.063c-0.828,0-1.5,0.672-1.5,1.5s0.672,1.5,1.5,1.5s1.5-0.672,1.5-1.5
			S23.266,19.063,22.438,19.063z M22.438,24.063c-0.828,0-1.5,0.672-1.5,1.5s0.672,1.5,1.5,1.5s1.5-0.672,1.5-1.5
			S23.266,24.063,22.438,24.063z"/>
	</g>
</g>
</svg>
