<?xml version="1.0" encoding="utf-8"?>
<!-- Generator: Adobe Illustrator 15.1.0, SVG Export Plug-In . SVG Version: 6.00 Build 0)  -->
<!DOCTYPE svg PUBLIC "-//W3C//DTD SVG 1.1//EN" "http://www.w3.org/Graphics/SVG/1.1/DTD/svg11.dtd">
<svg version="1.1" id="linked_cscf" xmlns="http://www.w3.org/2000/svg" xmlns:xlink="http://www.w3.org/1999/xlink" x="0px" y="0px"
	 viewBox="0 0 32 32" enable-background="new 0 0 32 32" xml:space="preserve">
<path fill-rule="evenodd" clip-rule="evenodd" fill="#FFFFFF" d="M15.939,22.875c-3.818,0-6.914-3.096-6.914-6.915
	c0-3.818,3.096-6.914,6.914-6.914c2.273,0,4.283,1.102,5.543,2.794l3.692-3.691L23.056,6.03l-2.178,2.178
	c-0.87-0.556-1.839-0.971-2.874-1.213V3.937h-4.036v3.007c-1.063,0.223-2.044,0.646-2.938,1.199L8.915,6.027L6.061,8.882
	l2.078,2.078c-0.589,0.899-1.044,1.894-1.294,2.974H3.999v4.036h2.812c0.234,1.102,0.683,2.117,1.269,3.036l-2.007,2.007
	l2.854,2.854l2.01-2.01c0.918,0.583,1.932,1.028,3.031,1.259v2.837h4.036v-2.889c1.072-0.251,2.07-0.69,2.965-1.275l2.075,2.075
	l2.06-2.059l-3.665-3.666C20.176,21.799,18.186,22.875,15.939,22.875z M29.947,14.604L29.947,14.604l-3.526-3.525l-1.401,1.401
	l2.515,2.515h-9.527v1.982h9.567l-2.555,2.555l1.401,1.401l3.525-3.526l0.001,0.001l1.4-1.402L29.947,14.604z"/>
</svg>
