<?xml version="1.0" encoding="utf-8"?>
<!-- Generator: Adobe Illustrator 15.1.0, SVG Export Plug-In . SVG Version: 6.00 Build 0)  -->
<!DOCTYPE svg PUBLIC "-//W3C//DTD SVG 1.1//EN" "http://www.w3.org/Graphics/SVG/1.1/DTD/svg11.dtd">
<svg version="1.1" xmlns="http://www.w3.org/2000/svg" xmlns:xlink="http://www.w3.org/1999/xlink" x="0px"
	 y="0px" viewBox="0 0 40 40" enable-background="new 0 0 40 40" xml:space="preserve">
<circle fill="#00080D" cx="16.795" cy="9.606" r="2.787"/>
<circle fill="#00080D" cx="22.874" cy="18.167" r="3.326"/>
<circle fill="#00080D" cx="28.182" cy="27.585" r="2.607"/>
<circle fill="#00080D" cx="18.336" cy="25.873" r="2.248"/>
<circle fill="#00080D" cx="9.688" cy="19.367" r="2.248"/>
<polygon fill="#00080D" points="17.716,9.286 22.833,16.565 21.203,17.552 15.98,10.123 "/>
<polygon fill="#00080D" points="24.42,18.963 29.112,27.156 27.445,28.077 22.731,19.841 "/>
<polygon fill="#00080D" points="22.069,19.122 9.353,20.18 9.232,18.283 21.822,17.233 "/>
<polygon fill="#00080D" points="22.924,19.741 19.156,25.987 17.503,25.043 21.259,18.818 "/>
<path fill="#00080D" d="M9.19,8.379c0.051,0.069,0.083,0.145,0.129,0.216c0.366-0.34,0.748-0.668,1.152-0.978
	c2.85-2.192,6.191-3.233,9.514-3.233c4.212,0,8.275,1.661,11.333,4.888c0.211-0.294,0.449-0.571,0.744-0.801
	c0.372-0.272,0.774-0.461,1.185-0.6c-3.503-3.858-8.409-5.843-13.243-5.843c-3.799,0-7.707,1.242-10.938,3.708
	C8.512,6.164,7.997,6.623,7.505,7.098C8.15,7.343,8.738,7.761,9.19,8.379z"/>
<path fill="#00080D" d="M17.361,35.444c-3.772-0.634-7.274-2.62-9.83-5.948c-3.375-4.424-4.005-10.069-2.193-14.928
	c-0.774-0.158-1.496-0.541-2.063-1.127c-2.237,5.668-1.55,12.304,2.466,17.499c2.935,3.878,7.115,6.148,11.562,6.808
	C17.094,36.993,17.116,36.188,17.361,35.444z"/>
<path fill="#00080D" d="M36.839,14.66c-0.564,0.449-1.229,0.688-1.907,0.764c1.884,6.079-0.082,12.951-5.431,17.03
	c-1.526,1.174-3.195,2.008-4.926,2.538c0.345,0.736,0.445,1.524,0.331,2.275c2.134-0.607,4.197-1.601,6.038-3.004
	c6.228-4.729,8.463-12.778,6.145-19.841C37.005,14.501,36.932,14.588,36.839,14.66z"/>
<path fill="#00080D" d="M4.721,8.98c-0.96,0.749-1.171,2.196-0.408,3.155c0.749,0.959,2.197,1.17,3.157,0.408
	c0.959-0.75,1.17-2.117,0.407-3.155C7.127,8.362,5.747,8.231,4.721,8.98z"/>
<path fill="#00080D" d="M33.075,9.779c-0.959,0.749-1.171,2.196-0.407,3.155c0.749,0.959,2.196,1.17,3.156,0.408
	c0.959-0.75,1.17-2.117,0.407-3.155C35.482,9.161,34.103,9.03,33.075,9.779z"/>
<path fill="#00080D" d="M19.682,34.879c-0.959,0.748-1.171,2.195-0.408,3.153c0.75,0.96,2.197,1.172,3.157,0.409
	c0.959-0.75,1.17-2.117,0.407-3.156C22.089,34.26,20.708,34.129,19.682,34.879z"/>
</svg>
