<?xml version="1.0" encoding="utf-8"?>
<!-- Generator: Adobe Illustrator 15.1.0, SVG Export Plug-In . SVG Version: 6.00 Build 0)  -->
<!DOCTYPE svg PUBLIC "-//W3C//DTD SVG 1.1//EN" "http://www.w3.org/Graphics/SVG/1.1/DTD/svg11.dtd">
<svg version="1.1" xmlns="http://www.w3.org/2000/svg" xmlns:xlink="http://www.w3.org/1999/xlink"
	 x="0px" y="0px" viewBox="0 0 40 40" enable-background="new 0 0 40 40" xml:space="preserve">
<g>
	<path fill="#00080D" d="M27.207,19.596c-0.532,0-0.945,0.207-1.264,0.631c-0.316,0.424-0.478,0.997-0.478,1.704
		c0,0.716,0.16,1.287,0.477,1.701c0.315,0.41,0.716,0.61,1.225,0.61c0.527,0,0.933-0.193,1.24-0.59
		c0.309-0.404,0.466-0.973,0.466-1.69c0-0.75-0.152-1.341-0.453-1.757C28.125,19.795,27.728,19.596,27.207,19.596z"/>
	<path fill="#00080D" d="M15.042,21.544c-0.343,0-0.6,0.12-0.789,0.365c-0.191,0.25-0.289,0.614-0.289,1.081
		c0,0.973,0.356,1.446,1.086,1.446c0.694,0,1.032-0.487,1.032-1.489C16.084,22.003,15.743,21.544,15.042,21.544z"/>
	<path fill="#00080D" d="M20.001,4.889C10.556,4.889,3,7.175,3,9.646v20.616c0,2.472,7.682,4.85,17.001,4.85
		c9.443,0,16.999-2.195,16.999-4.758V9.737C37,7.268,29.444,4.889,20.001,4.889z M3.378,31.177v-0.274V31.177z M20.002,6.771
		c7.061,0,12.785,1.031,12.785,2.297c0,1.268-5.725,2.297-12.785,2.297S7.214,10.337,7.214,9.069
		C7.214,7.802,12.941,6.771,20.002,6.771z M11.457,25.757H9.693l-2.959-4.748c-0.066-0.105-0.125-0.203-0.177-0.29
		c0.009,0.225,0.014,0.5,0.014,0.83v4.208H4.871v-7.674h1.872l0.028,0.044l2.822,4.557c0.06,0.096,0.117,0.19,0.173,0.285
		c-0.007-0.173-0.01-0.39-0.01-0.653v-4.233h1.701V25.757z M17.102,25.087c-0.511,0.532-1.217,0.801-2.099,0.801
		c-0.87,0-1.564-0.262-2.065-0.778c-0.5-0.515-0.753-1.221-0.753-2.099c0-0.905,0.263-1.626,0.782-2.143
		c0.52-0.515,1.227-0.776,2.105-0.776c0.865,0,1.556,0.261,2.052,0.778c0.495,0.516,0.746,1.204,0.746,2.046
		C17.87,23.825,17.611,24.556,17.102,25.087z M23.072,24.655c-0.156,0.295-0.372,0.538-0.642,0.723
		c-0.269,0.183-0.582,0.314-0.934,0.393c-0.35,0.079-0.722,0.117-1.105,0.117c-0.394,0-0.775-0.036-1.132-0.106
		c-0.359-0.07-0.675-0.179-0.941-0.322l-0.049-0.026v-1.938l0.157,0.139c0.275,0.244,0.582,0.432,0.907,0.555
		c0.326,0.122,0.658,0.186,0.989,0.186c0.193,0,0.364-0.02,0.504-0.056c0.139-0.035,0.256-0.084,0.349-0.146
		c0.088-0.061,0.153-0.13,0.194-0.207c0.043-0.079,0.064-0.163,0.064-0.256c0-0.127-0.034-0.237-0.103-0.338
		c-0.072-0.104-0.175-0.203-0.303-0.295c-0.129-0.093-0.284-0.182-0.475-0.274c-0.187-0.089-0.39-0.182-0.606-0.274
		c-0.568-0.249-0.999-0.56-1.28-0.922c-0.284-0.367-0.428-0.815-0.428-1.332c0-0.405,0.079-0.758,0.234-1.05
		c0.155-0.292,0.369-0.535,0.636-0.724c0.262-0.187,0.572-0.326,0.921-0.415c0.342-0.086,0.71-0.13,1.094-0.13
		c0.376,0,0.713,0.024,1.001,0.071c0.288,0.047,0.562,0.123,0.811,0.222l0.059,0.024v1.813l-0.149-0.112
		c-0.113-0.082-0.238-0.157-0.375-0.22c-0.138-0.065-0.278-0.118-0.42-0.16c-0.143-0.042-0.287-0.073-0.431-0.094
		c-0.354-0.048-0.635-0.037-0.879,0.022c-0.139,0.035-0.256,0.083-0.348,0.142c-0.09,0.058-0.16,0.128-0.209,0.208
		c-0.047,0.079-0.071,0.165-0.071,0.261c0,0.107,0.027,0.203,0.08,0.286c0.057,0.09,0.139,0.176,0.246,0.258
		c0.112,0.086,0.249,0.17,0.408,0.252c0.159,0.083,0.341,0.168,0.555,0.261c0.29,0.129,0.552,0.265,0.778,0.406
		c0.233,0.145,0.436,0.312,0.603,0.494c0.168,0.184,0.3,0.398,0.392,0.639c0.088,0.237,0.134,0.516,0.134,0.83
		C23.309,23.991,23.229,24.359,23.072,24.655z M29.066,26.765l-0.028-0.029l-0.904-0.967c-0.306,0.08-0.64,0.119-0.996,0.119
		c-1.04,0-1.901-0.361-2.56-1.075c-0.654-0.718-0.986-1.657-0.986-2.794c0-1.197,0.336-2.185,0.999-2.935
		c0.664-0.748,1.56-1.127,2.661-1.127c1.038,0,1.889,0.363,2.53,1.08c0.642,0.711,0.967,1.663,0.967,2.83
		c0,1.191-0.337,2.17-1.002,2.908l-0.065,0.071c0,0.001-0.001,0.001-0.001,0.002l1.894,1.916H29.066z M35.91,25.757h-4.424v-7.674
		h1.79v6.119h2.634V25.757z"/>
</g>
</svg>
