<?xml version="1.0" encoding="utf-8"?>
<!-- Generator: Adobe Illustrator 15.1.0, SVG Export Plug-In . SVG Version: 6.00 Build 0)  -->
<!DOCTYPE svg PUBLIC "-//W3C//DTD SVG 1.1//EN" "http://www.w3.org/Graphics/SVG/1.1/DTD/svg11.dtd">
<svg version="1.1" id="node_tm" xmlns="http://www.w3.org/2000/svg" xmlns:xlink="http://www.w3.org/1999/xlink" x="0px" y="0px"
	 viewBox="0 0 40 40" enable-background="new 0 0 40 40" xml:space="preserve">
<path fill-rule="evenodd" clip-rule="evenodd" fill="#00080D" d="M10.367,7.364l-2.4-2.395C4.888,8.048,2.984,12.302,2.984,17
	c0,4.656,1.874,8.871,4.904,11.943l2.4-2.395C7.87,24.09,6.375,20.721,6.375,17C6.375,13.236,7.9,9.83,10.367,7.364z M12.591,9.584
	c-1.899,1.897-3.075,4.52-3.075,7.417c0,2.854,1.144,5.438,2.994,7.329l2.431-2.426c-1.23-1.27-1.99-2.997-1.99-4.903
	c0-1.95,0.792-3.715,2.071-4.991L12.591,9.584z M27.438,9.614l-2.432,2.425c1.263,1.274,2.044,3.026,2.044,4.962
	c0,1.893-0.75,3.607-1.963,4.873l2.431,2.426c1.833-1.888,2.967-4.459,2.967-7.299C30.485,14.119,29.321,11.509,27.438,9.614z
	 M32.062,5l-2.4,2.395c2.449,2.463,3.964,5.856,3.964,9.604c0,3.705-1.484,7.061-3.885,9.517l2.4,2.396
	c3.013-3.07,4.875-7.271,4.875-11.912C37.016,12.317,35.122,8.077,32.062,5z M21.021,25.314c0-2.173-0.014-4.108-0.026-5.444
	c1.193-0.415,2.055-1.537,2.055-2.871c0-1.685-1.366-3.051-3.051-3.051c-1.685,0-3.051,1.366-3.051,3.051
	c0,1.333,0.861,2.455,2.053,2.87c-0.013,1.319-0.027,3.241-0.027,5.477c0,4.294-1.672,8.956-1.921,9.626h-1.041v1.985h8v-1.985H23.1
	C22.831,34.301,21.021,29.617,21.021,25.314z"/>
</svg>
