<?xml version="1.0" encoding="utf-8"?>
<!-- Generator: Adobe Illustrator 15.1.0, SVG Export Plug-In . SVG Version: 6.00 Build 0)  -->
<!DOCTYPE svg PUBLIC "-//W3C//DTD SVG 1.1//EN" "http://www.w3.org/Graphics/SVG/1.1/DTD/svg11.dtd">
<svg version="1.1" id="node_switch" xmlns="http://www.w3.org/2000/svg" xmlns:xlink="http://www.w3.org/1999/xlink"
	 x="0px" y="0px" viewBox="0 0 40 40" enable-background="new 0 0 40 40" xml:space="preserve">
<g id="Shape_256_copy_13">
	<g>
		<polygon fill-rule="evenodd" clip-rule="evenodd" fill="#00080D" points="28.8,0.812 26.389,3.223 30.206,7.041 21.01,7.041 
			21.01,11.035 30.155,11.035 26.389,14.802 28.8,17.213 37.001,9.013 		"/>
	</g>
</g>
<g id="Shape_256_copy_21">
	<g>
		<polygon fill-rule="evenodd" clip-rule="evenodd" fill="#00080D" points="28.8,17.812 26.389,20.223 30.206,24.041 21.01,24.041 
			21.01,28.035 30.155,28.035 26.389,31.802 28.8,34.213 37.001,26.013 		"/>
	</g>
</g>
<g id="Shape_256_copy_22">
	<g>
		<polygon fill-rule="evenodd" clip-rule="evenodd" fill="#00080D" points="18.989,28.965 9.845,28.965 13.612,25.198 11.2,22.787 
			2.999,30.987 11.2,39.188 13.612,36.777 9.794,32.959 18.989,32.959 		"/>
	</g>
</g>
<g id="Shape_256_copy_22_2_">
	<g>
		<polygon fill-rule="evenodd" clip-rule="evenodd" fill="#00080D" points="18.989,11.965 9.845,11.965 13.612,8.198 11.2,5.787 
			2.999,13.987 11.2,22.188 13.612,19.777 9.794,15.959 18.989,15.959 		"/>
	</g>
</g>
</svg>
