<?xml version="1.0" encoding="utf-8"?>
<!-- Generator: Adobe Illustrator 15.1.0, SVG Export Plug-In . SVG Version: 6.00 Build 0)  -->
<!DOCTYPE svg PUBLIC "-//W3C//DTD SVG 1.1//EN" "http://www.w3.org/Graphics/SVG/1.1/DTD/svg11.dtd">
<svg version="1.1" id="node_lb" xmlns="http://www.w3.org/2000/svg" xmlns:xlink="http://www.w3.org/1999/xlink" x="0px" y="0px"
	 viewBox="0 0 40 40" enable-background="new 0 0 40 40" xml:space="preserve">
<path fill-rule="evenodd" clip-rule="evenodd" fill="#00080D" d="M34.216,17.378L34.216,17.378l-4.257-4.257l-2.117,2.116
	l2.786,2.787H17.836c-0.21-0.954-0.597-1.842-1.15-2.608L25.003,7.1v3.94h2.994V2.025h-9.015V5.02h3.866l-8.393,8.393
	c-1.022-0.581-2.202-0.917-3.461-0.917c-3.879,0-7.023,3.145-7.023,7.022c0,3.879,3.144,7.022,7.023,7.022
	c1.253,0,2.427-0.332,3.445-0.907l8.408,8.409h-3.866v2.994h9.015v-9.015h-2.994v3.94l-8.327-8.327
	c0.558-0.769,0.948-1.659,1.159-2.617h12.74l-2.733,2.733l2.117,2.117l4.257-4.257l2.116-2.117L34.216,17.378z M10.99,23.017
	c-1.933,0-3.5-1.566-3.5-3.499s1.567-3.5,3.5-3.5s3.499,1.567,3.499,3.5S12.922,23.017,10.99,23.017z"/>
</svg>
