<?xml version="1.0" encoding="utf-8"?>
<!-- Generator: Adobe Illustrator 15.1.0, SVG Export Plug-In . SVG Version: 6.00 Build 0)  -->
<!DOCTYPE svg PUBLIC "-//W3C//DTD SVG 1.1//EN" "http://www.w3.org/Graphics/SVG/1.1/DTD/svg11.dtd">
<svg version="1.1" id="node_vpts" xmlns="http://www.w3.org/2000/svg" xmlns:xlink="http://www.w3.org/1999/xlink" x="0px" y="0px"
	viewBox="0 0 40 40" enable-background="new 0 0 40 40" xml:space="preserve">
<path fill-rule="evenodd" clip-rule="evenodd" fill="#00080D" d="M37.267,10.504l-1.845-1.845L30.79,4.027l-1.845,1.845l3.066,3.067
	h-3.93c-2.196,0-4.117,1.161-5.197,2.899l-0.018-0.011l-8.776,14.878c-0.641,0.852-1.306,1.263-2.454,1.263H7.896l3.127-3.128
	l-1.845-1.845l-4.632,4.632l-1.845,1.845l1.845,1.846h0l4.631,4.632l1.845-1.846l-3.075-3.075h3.688
	c2.473,0,4.599-1.471,5.563-3.582l8.24-13.968c0.031-0.04,0.071-0.074,0.101-0.114C26.209,12.435,26.883,12,28.082,12h3.999
	l-3.136,3.136l1.845,1.845l4.632-4.631v0L37.267,10.504z"/>
<path fill-rule="evenodd" clip-rule="evenodd" fill="#00080D" d="M37.298,29.473l-1.845-1.845l-4.632-4.632l-1.845,1.845
	l3.127,3.128h-3.74c-1.147,0-1.813-0.411-2.453-1.262l-8.777-14.879l-0.018,0.011c-1.08-1.738-3-2.899-5.197-2.899h-3.93
	l3.067-3.067L9.21,4.027L4.578,8.659l-1.845,1.845l1.845,1.846l0,0L9.21,16.98l1.845-1.845L7.919,12h3.999
	c1.199,0,1.873,0.435,2.541,1.365c0.03,0.041,0.07,0.076,0.103,0.116l8.237,13.962c0.964,2.114,3.091,3.586,5.565,3.586h3.688
	l-3.075,3.075l1.845,1.846l4.632-4.632l0,0L37.298,29.473z"/>
</svg>
