<?xml version="1.0" encoding="utf-8"?>
<!-- Generator: Adobe Illustrator 15.1.0, SVG Export Plug-In . SVG Version: 6.00 Build 0)  -->
<!DOCTYPE svg PUBLIC "-//W3C//DTD SVG 1.1//EN" "http://www.w3.org/Graphics/SVG/1.1/DTD/svg11.dtd">
<svg version="1.1" id="node_cpp" xmlns="http://www.w3.org/2000/svg" xmlns:xlink="http://www.w3.org/1999/xlink" x="0px" y="0px"
	 viewBox="0 0 40 40" enable-background="new 0 0 40 40" xml:space="preserve">
<path fill-rule="evenodd" clip-rule="evenodd" fill="#00080D" d="M10.073,24.685l-5.251,3.063c-0.322-0.263-0.7-0.468-1.128-0.582
	c-1.619-0.435-3.283,0.526-3.717,2.146c-0.434,1.619,0.527,3.283,2.146,3.717c1.619,0.434,3.283-0.527,3.717-2.146
	c0.133-0.496,0.122-0.993,0.014-1.461l5.202-3.034L10.073,24.685z M3.934,30.371c-0.151,0.566-0.734,0.902-1.3,0.751
	c-0.567-0.152-0.903-0.734-0.751-1.301s0.734-0.903,1.3-0.751c0.079,0.021,0.14,0.067,0.209,0.104l0.557,0.964
	C3.945,30.216,3.955,30.293,3.934,30.371z M36.971,16.981c-1.324,0-2.438,0.854-2.854,2.036h-4.205v1.967h4.196
	c0.406,1.198,1.527,2.066,2.862,2.066c1.676,0,3.035-1.359,3.035-3.035S38.646,16.981,36.971,16.981z M36.971,21.077
	c-0.587,0-1.063-0.476-1.063-1.063c0-0.586,0.476-1.062,1.063-1.062c0.586,0,1.062,0.476,1.062,1.062
	C38.032,20.602,37.557,21.077,36.971,21.077z M9.006,6.141c0-1.676-1.359-3.034-3.035-3.034c-1.676,0-3.035,1.358-3.035,3.034
	s1.359,3.035,3.035,3.035c0.537,0,1.034-0.151,1.472-0.396l3.056,3.056l1.39-1.39L8.767,7.323C8.921,6.959,9.006,6.56,9.006,6.141z
	 M5.97,7.202c-0.586,0-1.062-0.476-1.062-1.063c0-0.586,0.476-1.062,1.062-1.062S7.032,5.554,7.032,6.14
	C7.032,6.727,6.557,7.202,5.97,7.202z M30.674,5.555c0.838-1.451,0.341-3.307-1.111-4.146c-1.451-0.838-3.307-0.34-4.145,1.111
	C24.758,3.663,24.936,5.05,25.745,6l-2.593,4.447l1.702,0.983l2.585-4.432C28.684,7.252,30.004,6.716,30.674,5.555z M28.964,4.569
	c-0.293,0.508-0.942,0.682-1.45,0.389c-0.508-0.294-0.682-0.943-0.389-1.451s0.942-0.682,1.45-0.389
	C29.084,3.411,29.258,4.062,28.964,4.569z M21.029,34.093v-4.921l-1.965,0.001v4.91c-1.199,0.406-2.067,1.527-2.067,2.863
	c0,1.676,1.359,3.034,3.035,3.034c1.676,0,3.034-1.358,3.034-3.034C23.066,35.621,22.213,34.507,21.029,34.093z M20.033,38.007
	c-0.586,0-1.062-0.476-1.062-1.062c0-0.587,0.476-1.063,1.062-1.063c0.587,0,1.062,0.476,1.062,1.063
	C21.095,37.531,20.62,38.007,20.033,38.007z"/>
<path fill-rule="evenodd" clip-rule="evenodd" fill="#00080D" d="M29.684,26.56c1.516-2.134,2.414-4.735,2.414-7.552
	c0-7.221-5.854-13.074-13.074-13.074c-7.221,0-13.074,5.854-13.074,13.074s5.854,13.074,13.074,13.074
	c2.804,0,5.396-0.891,7.525-2.394l6.406,6.406l3.132-3.132L29.684,26.56z M19.02,27.961c-4.942,0-8.949-4.007-8.949-8.949
	c0-4.941,4.006-8.948,8.949-8.948s8.949,4.007,8.949,8.948C27.969,23.954,23.962,27.961,19.02,27.961z"/>
<path fill-rule="evenodd" clip-rule="evenodd" fill="#00080D" d="M20.019,13.937c-0.892,0-1.717,0.25-2.446,0.654l-4.042-4.042
	l-2.097,2.097l4.078,4.079c-0.352,0.69-0.569,1.461-0.569,2.29c0,0.738,0.165,1.434,0.448,2.066l-4.826,2.786l1.483,2.568
	l5.355-3.092c0.766,0.465,1.655,0.747,2.617,0.747c2.803,0,5.077-2.272,5.077-5.076S22.822,13.937,20.019,13.937z M20.017,20.902
	c-1.042,0-1.888-0.845-1.888-1.888c0-1.042,0.845-1.888,1.888-1.888c1.042,0,1.888,0.846,1.888,1.888
	C21.904,20.058,21.059,20.902,20.017,20.902z"/>
</svg>
