<?xml version="1.0" encoding="utf-8"?>
<!-- Generator: Adobe Illustrator 15.1.0, SVG Export Plug-In . SVG Version: 6.00 Build 0)  -->
<!DOCTYPE svg PUBLIC "-//W3C//DTD SVG 1.1//EN" "http://www.w3.org/Graphics/SVG/1.1/DTD/svg11.dtd">
<svg version="1.1" id="node_uppcr" xmlns="http://www.w3.org/2000/svg" xmlns:xlink="http://www.w3.org/1999/xlink" x="0px" y="0px"
	 viewBox="0 0 40 40" enable-background="new 0 0 40 40" xml:space="preserve">
<g id="Shape_270_copy_4">
	<g>
		<path fill-rule="evenodd" clip-rule="evenodd" fill="#00080D" d="M11.003,20.996c-1.652,0-2.991,1.339-2.991,2.991
			s1.339,2.991,2.991,2.991c1.652,0,2.991-1.339,2.991-2.991S12.655,20.996,11.003,20.996z M11.001,24.962
			c-0.54,0-0.977-0.438-0.977-0.977c0-0.54,0.438-0.977,0.977-0.977s0.977,0.437,0.977,0.977
			C11.978,24.524,11.541,24.962,11.001,24.962z M17.003,14.979c1.652,0,2.991-1.339,2.991-2.991s-1.339-2.991-2.991-2.991
			c-1.652,0-2.991,1.339-2.991,2.991S15.351,14.979,17.003,14.979z M17.001,11.009c0.54,0,0.977,0.437,0.977,0.977
			c0,0.539-0.438,0.977-0.977,0.977s-0.977-0.438-0.977-0.977C16.024,11.445,16.461,11.009,17.001,11.009z M33.003,8.996
			c-1.652,0-2.991,1.339-2.991,2.991s1.339,2.991,2.991,2.991c1.651,0,2.991-1.339,2.991-2.991S34.654,8.996,33.003,8.996z
			 M33.001,12.962c-0.54,0-0.978-0.438-0.978-0.977c0-0.54,0.438-0.977,0.978-0.977s0.978,0.437,0.978,0.977
			C33.979,12.524,33.541,12.962,33.001,12.962z M26.994,8.987c0-1.652-1.34-2.991-2.991-2.991c-1.652,0-2.991,1.339-2.991,2.991
			s1.339,2.991,2.991,2.991C25.654,11.979,26.994,10.64,26.994,8.987z M23.023,8.985c0-0.54,0.438-0.977,0.978-0.977
			s0.978,0.437,0.978,0.977c0,0.539-0.438,0.977-0.978,0.977S23.023,9.524,23.023,8.985z M28.003,14.996
			c-1.652,0-2.991,1.339-2.991,2.991s1.339,2.991,2.991,2.991c1.651,0,2.991-1.339,2.991-2.991S29.654,14.996,28.003,14.996z
			 M28.001,18.962c-0.54,0-0.978-0.438-0.978-0.977c0-0.54,0.438-0.977,0.978-0.977s0.978,0.437,0.978,0.977
			C28.979,18.524,28.541,18.962,28.001,18.962z M25.003,21.996c-1.652,0-2.991,1.339-2.991,2.991s1.339,2.991,2.991,2.991
			c1.651,0,2.991-1.339,2.991-2.991S26.654,21.996,25.003,21.996z M25.001,25.962c-0.54,0-0.978-0.438-0.978-0.977
			c0-0.54,0.438-0.977,0.978-0.977s0.978,0.437,0.978,0.977C25.979,25.524,25.541,25.962,25.001,25.962z M18.003,15.996
			c-1.652,0-2.991,1.339-2.991,2.991s1.339,2.991,2.991,2.991c1.652,0,2.991-1.339,2.991-2.991S19.655,15.996,18.003,15.996z
			 M18.001,19.962c-0.54,0-0.977-0.438-0.977-0.977c0-0.54,0.438-0.977,0.977-0.977s0.977,0.437,0.977,0.977
			C18.978,19.524,18.541,19.962,18.001,19.962z M17.003,25.996c-1.652,0-2.991,1.339-2.991,2.991s1.339,2.991,2.991,2.991
			c1.652,0,2.991-1.339,2.991-2.991S18.655,25.996,17.003,25.996z M17.001,29.962c-0.54,0-0.977-0.438-0.977-0.977
			c0-0.54,0.438-0.977,0.977-0.977s0.977,0.437,0.977,0.977C17.978,29.524,17.541,29.962,17.001,29.962z"/>
	</g>
</g>
<g id="Shape_279">
	<g>
		<path fill-rule="evenodd" clip-rule="evenodd" fill="#00080D" d="M5,33V4H3v31h35v-2H5z M34.895,6.498l-2.455-2.455L6.855,29.627
			l2.455,2.455L34.895,6.498z"/>
	</g>
</g>
</svg>
