<?xml version="1.0" encoding="utf-8"?>
<!-- Generator: Adobe Illustrator 15.1.0, SVG Export Plug-In . SVG Version: 6.00 Build 0)  -->
<!DOCTYPE svg PUBLIC "-//W3C//DTD SVG 1.1//EN" "http://www.w3.org/Graphics/SVG/1.1/DTD/svg11.dtd">
<svg version="1.1" id="node_gpm" xmlns="http://www.w3.org/2000/svg" xmlns:xlink="http://www.w3.org/1999/xlink" x="0px" y="0px"
	 viewBox="0 0 40 40" enable-background="new 0 0 40 40" xml:space="preserve">
<path fill-rule="evenodd" clip-rule="evenodd" fill="#00080D" d="M28.947,30.958v-2.985h-2.756
	c-0.141-0.517-0.349-1.005-0.612-1.457l1.952-1.951l-2.111-2.111l-1.943,1.943c-0.455-0.271-0.948-0.485-1.473-0.627v-2.734h-2.985
	v2.699c-0.542,0.133-1.053,0.342-1.524,0.612l-1.89-1.89l-2.111,2.111l1.866,1.865c-0.288,0.475-0.517,0.99-0.666,1.539h-2.624
	v2.985h2.588c0.141,0.571,0.367,1.106,0.657,1.601l-1.83,1.829l2.111,2.111l1.824-1.824c0.492,0.291,1.027,0.519,1.598,0.658v2.58
	h2.985v-2.616c0.553-0.149,1.069-0.381,1.545-0.673l1.879,1.879l2.111-2.111l-1.917-1.917c0.266-0.47,0.472-0.979,0.604-1.517
	H28.947z M20.479,32.543c-1.688,0-3.056-1.368-3.056-3.056c0-1.688,1.368-3.057,3.056-3.057s3.056,1.368,3.056,3.057
	C23.535,31.175,22.167,32.543,20.479,32.543z"/>
<path fill-rule="evenodd" clip-rule="evenodd" d="M20.018,1.081c-4.389,0-7.946,3.558-7.946,7.945c0,4.389,3.557,7.946,7.946,7.946
	c4.388,0,7.946-3.558,7.946-7.946C27.964,4.639,24.406,1.081,20.018,1.081z M20.021,13.924c-2.705,0-4.897-2.192-4.897-4.897
	c0-2.704,2.192-4.896,4.897-4.896c2.705,0,4.896,2.192,4.896,4.896C24.918,11.731,22.727,13.924,20.021,13.924z"/>
<path fill-rule="evenodd" clip-rule="evenodd" d="M32.998,30.063l0.001-3.089c0-4.39-3.558-7.948-7.948-7.948h-10.08
	c-4.388,0-7.945,3.558-7.945,7.946l-0.001,3.091h-3.02v-3.257c0-5.96,4.832-10.792,10.792-10.792h10.417
	c5.959,0,10.791,4.832,10.791,10.792v3.257H32.998z"/>
</svg>
