<?xml version="1.0" encoding="utf-8"?>
<!-- Generator: Adobe Illustrator 15.1.0, SVG Export Plug-In . SVG Version: 6.00 Build 0)  -->
<!DOCTYPE svg PUBLIC "-//W3C//DTD SVG 1.1//EN" "http://www.w3.org/Graphics/SVG/1.1/DTD/svg11.dtd">
<svg version="1.1" id="node_ap" xmlns="http://www.w3.org/2000/svg" xmlns:xlink="http://www.w3.org/1999/xlink" x="0px" y="0px"
	 viewBox="0 0 40 40" enable-background="new 0 0 40 40" xml:space="preserve">
<path fill-rule="evenodd" clip-rule="evenodd" fill="#00080D" d="M20,14.833c-7.732,0-14-1.584-14-3.538c0,0.103,0,2.308,0,4.262
	s6.268,3.538,14,3.538c7.732,0,14-1.584,14-3.538c0-1.211,0-3.307,0-4.262C34.001,13.249,27.732,14.833,20,14.833z M20,12.029
	c7.732,0,14-1.584,14-3.538s-6.269-3.538-14-3.538c-7.732,0-14,1.584-14,3.538S12.268,12.029,20,12.029z M6,18.295
	c0,0.103,0,2.308,0,4.262c0,1.837,5.541,3.346,12.628,3.521c0.141-1.561,0.479-3.021,1.191-4.246C12.171,21.806,6,20.233,6,18.295z
	 M6,25.295c0,0.103,0,2.308,0,4.262c0,1.873,5.763,3.402,13.05,3.526c-0.334-1.301-0.5-2.743-0.517-4.27
	C11.491,28.628,6,27.124,6,25.295z"/>
<path fill-rule="evenodd" clip-rule="evenodd" fill="#00080D" d="M36.947,29.958v-2.985h-2.756
	c-0.141-0.517-0.349-1.005-0.612-1.456l1.952-1.952l-2.111-2.111l-1.943,1.943c-0.455-0.271-0.948-0.484-1.473-0.626v-2.735h-2.985
	v2.699c-0.543,0.133-1.054,0.342-1.524,0.612l-1.89-1.89l-2.111,2.111l1.865,1.865c-0.288,0.475-0.516,0.99-0.665,1.539h-2.624
	v2.985h2.588c0.141,0.571,0.367,1.106,0.657,1.601l-1.83,1.829l2.111,2.111l1.825-1.824c0.491,0.291,1.026,0.519,1.598,0.658v2.58
	h2.985v-2.616c0.553-0.149,1.069-0.381,1.545-0.673l1.879,1.879l2.111-2.111l-1.917-1.917c0.266-0.47,0.472-0.979,0.604-1.517
	H36.947z M28.479,31.543c-1.688,0-3.056-1.368-3.056-3.056c0-1.688,1.368-3.057,3.056-3.057c1.688,0,3.057,1.368,3.057,3.057
	C31.535,30.175,30.167,31.543,28.479,31.543z"/>
</svg>
