<?xml version="1.0" encoding="utf-8"?>
<!-- Generator: Adobe Illustrator 15.1.0, SVG Export Plug-In . SVG Version: 6.00 Build 0)  -->
<!DOCTYPE svg PUBLIC "-//W3C//DTD SVG 1.1//EN" "http://www.w3.org/Graphics/SVG/1.1/DTD/svg11.dtd">
<svg version="1.1" xmlns="http://www.w3.org/2000/svg" xmlns:xlink="http://www.w3.org/1999/xlink" x="0px"
	 y="0px" viewBox="0 0 40 40" enable-background="new 0 0 40 40" xml:space="preserve">
<g>
	<g>
		<path fill-rule="evenodd" clip-rule="evenodd" fill="#00080D" d="M17.589,24.214c0.012,0,0.024-0.002,0.036-0.002
			c-1.561-0.897-2.624-2.563-2.624-4.493c0-2.872,2.329-5.201,5.202-5.201c1.528,0,2.889,0.671,3.841,1.721
			c-0.634-2.985-3.281-5.225-6.455-5.225c-3.645,0-6.6,2.955-6.6,6.601C10.989,21.259,13.944,24.214,17.589,24.214z M34,7h-0.969V6
			c0-1.104-0.896-2-2-2H6C4.896,4,4,4.896,4,6v25c0,1.104,0.896,2,2,2h0.969v1c0,1.104,0.896,2,2,2H34c1.104,0,2-0.896,2-2V9
			C36,7.896,35.104,7,34,7z M29.969,30H7V7h22.969V30z"/>
	</g>
</g>
</svg>
