<?xml version="1.0" encoding="utf-8"?>
<!-- Generator: Adobe Illustrator 15.1.0, SVG Export Plug-In . SVG Version: 6.00 Build 0)  -->
<!DOCTYPE svg PUBLIC "-//W3C//DTD SVG 1.1//EN" "http://www.w3.org/Graphics/SVG/1.1/DTD/svg11.dtd">
<svg version="1.1" id="node_ofcs" xmlns="http://www.w3.org/2000/svg" xmlns:xlink="http://www.w3.org/1999/xlink" x="0px" y="0px"
	 viewBox="0 0 40 40" enable-background="new 0 0 40 40" xml:space="preserve">
<path fill-rule="evenodd" clip-rule="evenodd" fill="#00080D" d="M27.626,4.641c5.168,2.677,8.741,8.325,8.741,14.88
	c0,6.555-3.573,12.202-8.741,14.88c6.521-1.815,11.312-7.782,11.312-14.881C38.938,12.421,34.146,6.455,27.626,4.641z"/>
<path fill-rule="evenodd" clip-rule="evenodd" fill="#00080D" d="M18.521,4.062c-8.538,0-15.459,6.921-15.459,15.459
	s6.921,15.46,15.459,15.46c8.538,0,15.459-6.922,15.459-15.46S27.059,4.062,18.521,4.062z M18.521,32.065
	c-6.928,0-12.545-5.616-12.545-12.545c0-6.928,5.617-12.545,12.545-12.545s12.545,5.617,12.545,12.545
	C31.066,26.449,25.449,32.065,18.521,32.065z"/>
<polygon fill-rule="evenodd" clip-rule="evenodd" fill="#00080D" points="25,16 25,13 20,13 20,11 17,11 17,13 15,13 12,13 12,16 
	12,18 12,21 15,21 22,21 22,23 12,23 12,26 17,26 17,28 20,28 20,26 22,26 25,26 25,23 25,21 25,18 22,18 15,18 15,16 "/>
</svg>
