<?xml version="1.0" encoding="utf-8"?>
<!-- Generator: Adobe Illustrator 15.1.0, SVG Export Plug-In . SVG Version: 6.00 Build 0)  -->
<!DOCTYPE svg PUBLIC "-//W3C//DTD SVG 1.1//EN" "http://www.w3.org/Graphics/SVG/1.1/DTD/svg11.dtd">
<svg version="1.1" id="node_rsde" xmlns="http://www.w3.org/2000/svg" xmlns:xlink="http://www.w3.org/1999/xlink" x="0px" y="0px"
	 viewBox="0 0 40 40" enable-background="new 0 0 40 40" xml:space="preserve">
<path fill-rule="evenodd" clip-rule="evenodd" fill="#00080D" d="M13.922,19.849l3.315,3.315l2.188,2.188l7.662-7.662l-2.188-2.188
	l-5.474,5.475l-3.315-3.315L13.922,19.849z M34,9H21.443l-0.933-2c-0.515-1.104-1.828-2-2.933-2H7C5.896,5,5,5.896,5,7v24
	c0,1.104,0.896,2,2,2h27c1.104,0,2-0.896,2-2V11C36,9.896,35.104,9,34,9z M32,29H9V9h8.082l1.889,4H32V29z"/>
</svg>
