<?xml version="1.0" encoding="utf-8"?>
<!-- Generator: Adobe Illustrator 15.1.0, SVG Export Plug-In . SVG Version: 6.00 Build 0)  -->
<!DOCTYPE svg PUBLIC "-//W3C//DTD SVG 1.1//EN" "http://www.w3.org/Graphics/SVG/1.1/DTD/svg11.dtd">
<svg version="1.1" xmlns="http://www.w3.org/2000/svg" xmlns:xlink="http://www.w3.org/1999/xlink" x="0px" y="0px"
	 viewBox="0 0 40 40" enable-background="new 0 0 40 40" xml:space="preserve">
<g>
	<path fill="#00080D" d="M33.149,21.705c0.024-1.092,0.074-2.008-0.074-3.076l4.23-2.618l-2.201-5.671l-4.948,1.271
		c-0.643-0.814-1.286-1.627-2.078-2.238l1.263-4.906L23.874,2l-2.573,4.373c-1.089-0.203-2.153-0.229-3.364-0.051l-2.523-4.17
		l-5.492,2.44l1.385,4.882c-0.618,0.636-1.237,1.271-1.831,2.085l-4.576-1.145l-2.4,5.618l4.23,2.466
		c-0.198,1.119-0.224,2.213-0.075,3.281l-3.909,2.388l2.201,5.671l4.602-1.221c0.668,0.992,1.484,1.781,2.275,2.391l-1.138,4.524
		L16.151,38l2.4-4.347c1.063,0.023,2.127,0.051,3.166-0.104l2.35,4.196l5.517-2.263l-1.211-4.905
		c0.791-0.662,1.559-1.502,2.152-2.314l4.577,1.145l2.399-5.618L33.149,21.705z M14.99,23.956l-0.369-1.547h-2.508l-0.397,1.547
		H8.979l2.895-8.4h3.14l2.724,8.4H14.99z M25.45,19.856c-0.291,0.445-0.705,0.791-1.244,1.035s-1.166,0.365-1.879,0.365h-0.773v2.7
		h-2.532v-8.4h3.446c1.182,0,2.047,0.225,2.596,0.674c0.549,0.449,0.824,1.148,0.824,2.097
		C25.888,18.901,25.741,19.411,25.45,19.856z M29.421,23.956H26.89v-8.4h2.531V23.956z"/>
	<path fill="#00080D" d="M13.396,17.384h-0.059c-0.008,0.094-0.035,0.248-0.082,0.463s-0.283,1.136-0.709,2.765h1.605l-0.586-2.284
		C13.484,17.991,13.428,17.677,13.396,17.384z"/>
	<path fill="#00080D" d="M22.034,17.372h-0.48v2.074h0.568c0.727,0,1.088-0.344,1.088-1.031c0-0.344-0.1-0.604-0.299-0.779
		C22.714,17.46,22.421,17.372,22.034,17.372z"/>
</g>
</svg>
