<?xml version="1.0" encoding="utf-8"?>
<!-- Generator: Adobe Illustrator 15.1.0, SVG Export Plug-In . SVG Version: 6.00 Build 0)  -->
<!DOCTYPE svg PUBLIC "-//W3C//DTD SVG 1.1//EN" "http://www.w3.org/Graphics/SVG/1.1/DTD/svg11.dtd">
<svg version="1.1" id="node_vdpi" xmlns="http://www.w3.org/2000/svg" xmlns:xlink="http://www.w3.org/1999/xlink" x="0px" y="0px"
	viewBox="0 0 40 40" enable-background="new 0 0 40 40" xml:space="preserve">
<g>
	<path fill="#00080D" d="M5.321,10.317c0,1.882-1.071,3.151-2.665,3.151C1.063,13.468,0,12.199,0,10.317
		c0-1.881,1.063-3.151,2.656-3.151C4.25,7.166,5.321,8.436,5.321,10.317z M3.826,10.317c0-1.125-0.459-1.845-1.17-1.845
		c-0.711,0-1.161,0.72-1.161,1.845c0,1.135,0.45,1.846,1.161,1.846C3.367,12.163,3.826,11.452,3.826,10.317z"/>
	<path fill="#00080D" d="M9.532,13.333h-1.44V9.012L6.651,9.75V8.417l1.944-1.116h0.937V13.333z"/>
	<path fill="#00080D" d="M4.204,22.332h-1.44v-4.321l-1.44,0.738v-1.333l1.944-1.116h0.937V22.332z"/>
	<path fill="#00080D" d="M5.321,28.316c0,1.881-1.071,3.15-2.665,3.15c-1.593,0-2.656-1.27-2.656-3.15s1.063-3.15,2.656-3.15
		C4.25,25.166,5.321,26.436,5.321,28.316z M3.826,28.316c0-1.125-0.459-1.846-1.17-1.846c-0.711,0-1.161,0.721-1.161,1.846
		c0,1.135,0.45,1.846,1.161,1.846C3.367,30.162,3.826,29.451,3.826,28.316z"/>
	<path fill="#00080D" d="M9.532,31.332h-1.44v-4.32l-1.44,0.738v-1.332l1.944-1.117h0.937V31.332z"/>
	<path fill="#00080D" d="M32.844,13.333h-1.44V9.012l-1.44,0.738V8.417l1.944-1.116h0.937V13.333z"/>
	<path fill="#00080D" d="M40,10.317c0,1.882-1.072,3.151-2.664,3.151c-1.594,0-2.656-1.27-2.656-3.151
		c0-1.881,1.063-3.151,2.656-3.151C38.928,7.166,40,8.436,40,10.317z M38.506,10.317c0-1.125-0.459-1.845-1.17-1.845
		c-0.713,0-1.162,0.72-1.162,1.845c0,1.135,0.449,1.846,1.162,1.846C38.047,12.163,38.506,11.452,38.506,10.317z"/>
	<path fill="#00080D" d="M38.883,22.332h-1.441v-4.321l-1.439,0.738v-1.333l1.945-1.116h0.936V22.332z"/>
	<path fill="#00080D" d="M40,28.316c0,1.881-1.072,3.15-2.664,3.15c-1.594,0-2.656-1.27-2.656-3.15s1.063-3.15,2.656-3.15
		C38.928,25.166,40,26.436,40,28.316z M38.506,28.316c0-1.125-0.459-1.846-1.17-1.846c-0.713,0-1.162,0.721-1.162,1.846
		c0,1.135,0.449,1.846,1.162,1.846C38.047,30.162,38.506,29.451,38.506,28.316z"/>
	<path fill="#00080D" d="M20.268,18.478c0,2.717-1.547,4.55-3.848,4.55c-2.301,0-3.835-1.833-3.835-4.55s1.534-4.55,3.835-4.55
		C18.72,13.928,20.268,15.761,20.268,18.478z M18.109,18.478c0-1.625-0.663-2.666-1.69-2.666c-1.027,0-1.677,1.04-1.677,2.666
		c0,1.638,0.65,2.665,1.677,2.665C17.446,21.143,18.109,20.116,18.109,18.478z"/>
	<path fill="#00080D" d="M26.026,22.833h-2.08v-6.24l-2.08,1.066v-1.924l2.808-1.612h1.353V22.833z"/>
</g>
<path fill-rule="evenodd" clip-rule="evenodd" fill="#00080D" d="M31.194,27.07c1.749-2.396,2.794-5.338,2.794-8.531
	c0-8.005-6.49-14.495-14.496-14.495c-8.006,0-14.496,6.49-14.496,14.495c0,8.006,6.49,14.496,14.496,14.496
	c3.212,0,6.171-1.059,8.575-2.827l5.95,5.949l3.132-3.132L31.194,27.07z M19.489,29.053c-5.804,0-10.51-4.706-10.51-10.51
	c0-5.805,4.706-10.51,10.51-10.51s10.51,4.705,10.51,10.51C29.999,24.347,25.293,29.053,19.489,29.053z"/>
</svg>
