<?xml version="1.0" encoding="utf-8"?>
<!-- Generator: Adobe Illustrator 15.1.0, SVG Export Plug-In . SVG Version: 6.00 Build 0)  -->
<!DOCTYPE svg PUBLIC "-//W3C//DTD SVG 1.1//EN" "http://www.w3.org/Graphics/SVG/1.1/DTD/svg11.dtd">
<svg version="1.1" id="node_vtse" xmlns="http://www.w3.org/2000/svg" xmlns:xlink="http://www.w3.org/1999/xlink" x="0px" y="0px"
	 viewBox="0 0 40 40" enable-background="new 0 0 40 40" xml:space="preserve">
<path fill-rule="evenodd" clip-rule="evenodd" d="M39.994,20.999v-1.997h-4.982c-0.225-3.406-1.574-6.498-3.689-8.913l3.518-3.517
	l-1.412-1.413L29.91,8.677c-2.414-2.116-5.506-3.467-8.911-3.693V0.006h-1.998v4.977c-3.409,0.222-6.503,1.57-8.921,3.685
	L6.569,5.156L5.156,6.568l3.511,3.51c-2.121,2.417-3.474,5.512-3.699,8.923H0.012v1.997h4.956c0.223,3.412,1.575,6.509,3.694,8.927
	l-3.505,3.506l1.413,1.412l3.505-3.506c2.419,2.118,5.516,3.469,8.928,3.69v4.96h1.998v-4.961c3.408-0.227,6.502-1.58,8.917-3.699
	l3.512,3.512l1.412-1.412l-3.512-3.513c2.114-2.416,3.461-5.509,3.685-8.916H39.994z M30.914,19.002H26.21
	c-0.432-2.667-2.539-4.767-5.211-5.188V9.092C26.255,9.566,30.438,13.747,30.914,19.002z M20.013,22.819
	c-1.552,0-2.81-1.258-2.81-2.81s1.258-2.81,2.81-2.81c1.551,0,2.809,1.258,2.809,2.81S21.564,22.819,20.013,22.819z M19.001,9.093
	v4.727c-2.655,0.433-4.746,2.526-5.176,5.182h-4.73C9.571,13.75,13.749,9.57,19.001,9.093z M9.095,20.999h4.727
	c0.422,2.666,2.517,4.77,5.18,5.203v4.709C13.748,30.434,9.57,26.253,9.095,20.999z M20.999,30.912v-4.704
	c2.679-0.422,4.791-2.531,5.215-5.209h4.7C30.439,26.256,26.256,30.438,20.999,30.912z"/>
</svg>
