<?xml version="1.0" encoding="utf-8"?>
<!-- Generator: Adobe Illustrator 15.1.0, SVG Export Plug-In . SVG Version: 6.00 Build 0)  -->
<!DOCTYPE svg PUBLIC "-//W3C//DTD SVG 1.1//EN" "http://www.w3.org/Graphics/SVG/1.1/DTD/svg11.dtd">
<svg version="1.1" id="node_ocs" xmlns="http://www.w3.org/2000/svg" xmlns:xlink="http://www.w3.org/1999/xlink" x="0px" y="0px"
	 viewBox="0 0 40 40" enable-background="new 0 0 40 40" xml:space="preserve">
<path fill-rule="evenodd" clip-rule="evenodd" fill="#00080D" d="M34,7H6C4.896,7,4,7.896,4,9v19c0,1.104,0.896,2,2,2h7v-3H7v-9h26
	v9h-5.002v3H34c1.104,0,2-0.896,2-2V9C36,7.896,35.104,7,34,7z M33,13H7v-3h26V13z"/>
<polygon fill-rule="evenodd" clip-rule="evenodd" fill="#00080D" points="26,26 26,23 22,23 22,21 19,21 19,23 18,23 15,23 15,26 
	15,27 15,30 18,30 23,30 23,31 15,31 15,34 19,34 19,36 22,36 22,34 23,34 26,34 26,31 26,30 26,27 23,27 18,27 18,26 "/>
</svg>
