<?xml version="1.0" encoding="utf-8"?>
<!-- Generator: Adobe Illustrator 15.1.0, SVG Export Plug-In . SVG Version: 6.00 Build 0)  -->
<!DOCTYPE svg PUBLIC "-//W3C//DTD SVG 1.1//EN" "http://www.w3.org/Graphics/SVG/1.1/DTD/svg11.dtd">
<svg version="1.1" id="noce_vspb" xmlns="http://www.w3.org/2000/svg" xmlns:xlink="http://www.w3.org/1999/xlink" x="0px" y="0px"
	viewBox="0 0 40 40" enable-background="new 0 0 40 40" xml:space="preserve">
<path fill-rule="evenodd" clip-rule="evenodd" fill="#00080D" d="M5.669,13.137l-2.117,2.116l2.686,2.687H0v3.153h6.228
	l-2.675,2.675l2.117,2.117l4.257-4.257l2.117-2.117l-2.117-2.117L5.669,13.137z M25.588,12.633l4.404-4.404v3.784h2.994V2.998
	h-8.984v2.994h3.768l-4.411,4.411L25.588,12.633z M26.096,19.512c0-3.633-2.945-6.578-6.578-6.578c-3.632,0-6.577,2.945-6.577,6.578
	s2.945,6.577,6.577,6.577C23.15,26.089,26.096,23.145,26.096,19.512z M19.513,22.787c-1.81,0-3.277-1.467-3.277-3.277
	c0-1.81,1.467-3.277,3.277-3.277c1.81,0,3.277,1.468,3.277,3.277C22.79,21.32,21.322,22.787,19.513,22.787z M33.626,13.137
	l-2.117,2.116l2.686,2.687h-6.183v3.153h6.172l-2.675,2.675l2.117,2.117L40,19.511L33.626,13.137z M29.992,30.771l-4.404-4.404
	l-2.229,2.229l4.411,4.411h-3.768v2.994h8.984v-9.015h-2.994V30.771z"/>
</svg>
