<?xml version="1.0" encoding="utf-8"?>
<!-- Generator: Adobe Illustrator 15.1.0, SVG Export Plug-In . SVG Version: 6.00 Build 0)  -->
<!DOCTYPE svg PUBLIC "-//W3C//DTD SVG 1.1//EN" "http://www.w3.org/Graphics/SVG/1.1/DTD/svg11.dtd">
<svg version="1.1" id="node_spb" xmlns="http://www.w3.org/2000/svg" xmlns:xlink="http://www.w3.org/1999/xlink" x="0px" y="0px"
	 viewBox="0 0 40 40" enable-background="new 0 0 40 40" xml:space="preserve">
<path fill-rule="evenodd" clip-rule="evenodd" fill="#00080D" d="M13.413,26.973h2.796c0.321-2.107,2.124-3.727,4.32-3.727
	c2.196,0,4,1.619,4.32,3.727h2.793c-0.246-2.671-1.94-4.923-4.307-5.933c1.053-0.835,1.741-2.11,1.741-3.559
	c0-2.518-2.041-4.56-4.559-4.56c-2.519,0-4.56,2.042-4.56,4.56c0,1.452,0.691,2.73,1.749,3.565
	C15.346,22.059,13.658,24.307,13.413,26.973z M20.519,15.579c1.051,0,1.903,0.852,1.903,1.903c0,1.051-0.852,1.902-1.903,1.902
	c-1.051,0-1.903-0.852-1.903-1.902C18.616,16.431,19.468,15.579,20.519,15.579z"/>
<path fill-rule="evenodd" clip-rule="evenodd" d="M26.066,4.002H7.034L7.012,34.975h26.982V11.93L26.066,4.002z M11.007,31
	L11.003,7.957H25v5.031h4.988V31H11.007z"/>
</svg>
