<?xml version="1.0" encoding="utf-8"?>
<!-- Generator: Adobe Illustrator 15.1.0, SVG Export Plug-In . SVG Version: 6.00 Build 0)  -->
<!DOCTYPE svg PUBLIC "-//W3C//DTD SVG 1.1//EN" "http://www.w3.org/Graphics/SVG/1.1/DTD/svg11.dtd">
<svg version="1.1" id="node_atom" xmlns="http://www.w3.org/2000/svg" xmlns:xlink="http://www.w3.org/1999/xlink" x="0px" y="0px"
	viewBox="0 0 40 40" enable-background="new 0 0 40 40" xml:space="preserve">
<path fill-rule="evenodd" clip-rule="evenodd" fill="#00080D" d="M33,6H9C7.896,6,7,6.896,7,8v11h3v-2h22v5H22v3h10v5H22v3h11
	c1.104,0,2-0.896,2-2V8C35,6.896,34.104,6,33,6z M32,14H10V9h22V14z M27.508,13.016c0.832,0,1.508-0.675,1.508-1.508
	S28.34,10,27.508,10C26.675,10,26,10.675,26,11.508S26.675,13.016,27.508,13.016z M29.016,27.508c0-0.833-0.676-1.508-1.508-1.508
	C26.675,26,26,26.675,26,27.508s0.675,1.508,1.508,1.508C28.34,29.016,29.016,28.341,29.016,27.508z M29.016,19.508
	c0-0.833-0.676-1.508-1.508-1.508C26.675,18,26,18.675,26,19.508s0.675,1.508,1.508,1.508C28.34,21.016,29.016,20.341,29.016,19.508
	z"/>
<path fill-rule="evenodd" clip-rule="evenodd" fill="#00080D" d="M20.947,29.958v-2.985h-2.755
	c-0.141-0.517-0.349-1.005-0.613-1.457l1.952-1.951l-2.111-2.111l-1.943,1.943c-0.455-0.271-0.948-0.484-1.472-0.626v-2.735h-2.986
	v2.699c-0.542,0.133-1.053,0.342-1.524,0.612l-1.89-1.89l-2.111,2.111l1.866,1.865c-0.288,0.475-0.517,0.99-0.666,1.539H4.069v2.985
	h2.588c0.141,0.571,0.367,1.106,0.657,1.601l-1.83,1.829l2.111,2.111l1.824-1.824c0.492,0.291,1.027,0.519,1.598,0.658v2.58h2.986
	v-2.616c0.553-0.149,1.069-0.381,1.544-0.673l1.879,1.879l2.111-2.111l-1.917-1.917c0.266-0.47,0.472-0.979,0.605-1.517H20.947z
	 M12.479,31.543c-1.688,0-3.056-1.368-3.056-3.056c0-1.688,1.368-3.057,3.056-3.057s3.056,1.368,3.056,3.057
	C15.535,30.175,14.167,31.543,12.479,31.543z"/>
</svg>
