<?xml version="1.0" encoding="utf-8"?>
<!-- Generator: Adobe Illustrator 15.1.0, SVG Export Plug-In . SVG Version: 6.00 Build 0)  -->
<!DOCTYPE svg PUBLIC "-//W3C//DTD SVG 1.1//EN" "http://www.w3.org/Graphics/SVG/1.1/DTD/svg11.dtd">
<svg version="1.1" id="process_agg" xmlns="http://www.w3.org/2000/svg" xmlns:xlink="http://www.w3.org/1999/xlink" x="0px" y="0px"
	 viewBox="0 0 40 40" enable-background="new 0 0 40 40" xml:space="preserve">
<path fill-rule="evenodd" clip-rule="evenodd" fill="#00080D" d="M30.984,23c-1.223,0-2.357,0.368-3.305,0.997
	c-3.348-1.612-5.664-5.027-5.664-8.991V7.979h-0.007V7.798l3.767,3.767l2.412-2.411l-5.789-5.79v0l-2.412-2.411l-2.412,2.411h0
	l-5.79,5.79l2.412,2.411l3.818-3.817v0.231h-0.03v7.027c0,3.971-2.324,7.391-5.681,9C11.354,23.371,10.212,23,8.984,23
	C5.679,23,3,25.68,3,28.984s2.679,5.984,5.984,5.984c3.305,0,5.984-2.68,5.984-5.984c0-0.563-0.083-1.105-0.229-1.622
	c2.167-1.198,3.985-2.949,5.26-5.067c1.27,2.109,3.078,3.855,5.232,5.053C25.084,27.868,25,28.416,25,28.984
	c0,3.305,2.68,5.984,5.984,5.984s5.984-2.68,5.984-5.984S34.289,23,30.984,23z M8.984,31.291c-1.274,0-2.307-1.033-2.307-2.307
	s1.033-2.307,2.307-2.307s2.307,1.033,2.307,2.307S10.258,31.291,8.984,31.291z M30.984,31.291c-1.273,0-2.307-1.033-2.307-2.307
	s1.033-2.307,2.307-2.307s2.307,1.033,2.307,2.307S32.258,31.291,30.984,31.291z"/>
</svg>
