<?xml version="1.0" encoding="utf-8"?>
<!-- Generator: Adobe Illustrator 15.1.0, SVG Export Plug-In . SVG Version: 6.00 Build 0)  -->
<!DOCTYPE svg PUBLIC "-//W3C//DTD SVG 1.1//EN" "http://www.w3.org/Graphics/SVG/1.1/DTD/svg11.dtd">
<svg version="1.1" id="process_crr" xmlns="http://www.w3.org/2000/svg" xmlns:xlink="http://www.w3.org/1999/xlink" x="0px" y="0px"
	 viewBox="0 0 40 40" enable-background="new 0 0 40 40" xml:space="preserve">
<path fill-rule="evenodd" clip-rule="evenodd" fill="#00080D" d="M30.984,23c-1.223,0-2.357,0.368-3.305,0.997
	c-3.348-1.612-5.664-5.027-5.664-8.991V7.979h-0.007V7.798l3.767,3.767l2.412-2.411l-5.789-5.79v0l-2.412-2.411l-2.412,2.411h0
	l-5.79,5.79l2.412,2.411l3.818-3.817v0.231h-0.03v7.027c0,4.265-2.679,7.896-6.442,9.327l-2.549-2.55l-7.208,7.208l7.22,7.22
	l7.208-7.208l-1.582-1.582c2.214-1.199,4.073-2.973,5.369-5.126c1.27,2.109,3.078,3.855,5.232,5.053
	C25.084,27.868,25,28.416,25,28.984c0,3.305,2.68,5.984,5.984,5.984s5.984-2.68,5.984-5.984S34.289,23,30.984,23z M9.001,30.889
	L7.11,28.998l1.888-1.889l1.891,1.892L9.001,30.889z M30.984,31.291c-1.273,0-2.307-1.033-2.307-2.307s1.033-2.307,2.307-2.307
	s2.307,1.033,2.307,2.307S32.258,31.291,30.984,31.291z"/>
</svg>
