<?xml version="1.0" encoding="utf-8"?>
<!-- Generator: Adobe Illustrator 15.1.0, SVG Export Plug-In . SVG Version: 6.00 Build 0)  -->
<!DOCTYPE svg PUBLIC "-//W3C//DTD SVG 1.1//EN" "http://www.w3.org/Graphics/SVG/1.1/DTD/svg11.dtd">
<svg version="1.1" id="process_dco" xmlns="http://www.w3.org/2000/svg" xmlns:xlink="http://www.w3.org/1999/xlink" x="0px" y="0px"
	 viewBox="0 0 40 40" enable-background="new 0 0 40 40" xml:space="preserve">
<path fill-rule="evenodd" clip-rule="evenodd" fill="#00080D" d="M34.018,15.037v-2.994h-3.847l5.704-5.704l-2.229-2.229
	l-5.648,5.648V6.022h-2.994v6.021v2.994h2.994H34.018z M5.982,12.043v2.994h6.021h2.994v-2.994V6.022h-2.994v3.735L6.354,4.109
	l-2.23,2.229l5.704,5.704H5.982z M5.982,25.025v2.994h3.783L4.125,33.66l2.23,2.23l5.648-5.648v3.798h2.994V28.02v-2.994h-2.994
	H5.982z M34.018,28.02v-2.994h-6.021h-2.994v2.994v6.021h2.994v-3.798l5.648,5.648l2.229-2.23l-5.641-5.641H34.018z M19.994,12.965
	c-3.878,0-7.022,3.145-7.022,7.022c0,3.879,3.144,7.022,7.022,7.022c3.879,0,7.023-3.144,7.023-7.022
	C27.018,16.109,23.873,12.965,19.994,12.965z M19.989,23.485c-1.932,0-3.499-1.567-3.499-3.499c0-1.933,1.567-3.5,3.499-3.5
	c1.933,0,3.5,1.567,3.5,3.5C23.488,21.918,21.922,23.485,19.989,23.485z"/>
</svg>
