<?xml version="1.0" encoding="utf-8"?>
<!-- Generator: Adobe Illustrator 15.1.0, SVG Export Plug-In . SVG Version: 6.00 Build 0)  -->
<!DOCTYPE svg PUBLIC "-//W3C//DTD SVG 1.1//EN" "http://www.w3.org/Graphics/SVG/1.1/DTD/svg11.dtd">
<svg version="1.1" id="process_ddp" xmlns="http://www.w3.org/2000/svg" xmlns:xlink="http://www.w3.org/1999/xlink" x="0px" y="0px"
	 viewBox="0 0 40 40" enable-background="new 0 0 40 40" xml:space="preserve">
<path fill-rule="evenodd" clip-rule="evenodd" fill="#00080D" d="M16.375,20.375L5.634,9.634c-0.791-0.791-2.073-0.791-2.864,0
	s-0.791,2.073,0,2.864l10.245,10.246v9.23h3.994V22c0.004-0.086,0.007-0.172,0-0.258v-0.055L17,21.686
	C16.949,21.209,16.739,20.739,16.375,20.375z M37.254,9.626c-0.791-0.791-2.074-0.791-2.865,0l-10.74,10.741
	c-0.367,0.367-0.58,0.84-0.632,1.32h-0.002V21.7c-0.015,0.146-0.017,0.291,0,0.436v9.839h3.994v-9.238L37.254,12.49
	C38.045,11.699,38.045,10.417,37.254,9.626z"/>
<path fill-rule="evenodd" clip-rule="evenodd" fill="#00080D" d="M20.003,12.996c-1.652,0-2.991,1.339-2.991,2.991
	s1.339,2.991,2.991,2.991c1.651,0,2.991-1.339,2.991-2.991S21.654,12.996,20.003,12.996z M13.003,7.996
	c-1.652,0-2.991,1.339-2.991,2.991s1.339,2.991,2.991,2.991c1.652,0,2.991-1.339,2.991-2.991S14.655,7.996,13.003,7.996z
	 M20.003,3.996c-1.652,0-2.991,1.339-2.991,2.991s1.339,2.991,2.991,2.991c1.651,0,2.991-1.339,2.991-2.991
	S21.654,3.996,20.003,3.996z M27.003,7.996c-1.652,0-2.991,1.339-2.991,2.991s1.339,2.991,2.991,2.991
	c1.651,0,2.991-1.339,2.991-2.991S28.654,7.996,27.003,7.996z M20.003,32.996c-1.652,0-2.991,1.339-2.991,2.991
	s1.339,2.991,2.991,2.991c1.651,0,2.991-1.339,2.991-2.991S21.654,32.996,20.003,32.996z"/>
</svg>
