<?xml version="1.0" encoding="utf-8"?>
<!-- Generator: Adobe Illustrator 15.1.0, SVG Export Plug-In . SVG Version: 6.00 Build 0)  -->
<!DOCTYPE svg PUBLIC "-//W3C//DTD SVG 1.1//EN" "http://www.w3.org/Graphics/SVG/1.1/DTD/svg11.dtd">
<svg version="1.1" id="process_dlb" xmlns="http://www.w3.org/2000/svg" xmlns:xlink="http://www.w3.org/1999/xlink" x="0px" y="0px"
	 viewBox="0 0 40 40" enable-background="new 0 0 40 40" xml:space="preserve">
<path fill-rule="evenodd" clip-rule="evenodd" fill="#00080D" d="M11.59,17.213l-6.593,6.593V19.94H2.003v9.015h9.015v-2.994H7.077
	l5.892-5.892v-1.514C12.463,18.144,11.989,17.706,11.59,17.213z M34.02,19.94v3.865l-6.047-6.046
	c-0.681,0.715-1.493,1.333-2.398,1.835l6.366,6.367h-3.941v2.994h9.015V19.94H34.02z M21.015,31.587V21h-2.994v10.533L15.287,28.8
	l-2.117,2.117l6.374,6.374l6.375-6.374L23.802,28.8L21.015,31.587z"/>
<g>
	<path fill="#00080D" d="M14.127,18.687V2.582h5.705c5.72,0,8.581,2.617,8.581,7.85c0,2.508-0.78,4.511-2.342,6.008
		c-1.561,1.498-3.641,2.246-6.239,2.246H14.127z M17.755,5.536v10.208h1.797c1.572,0,2.807-0.472,3.701-1.415
		s1.342-2.228,1.342-3.852c0-1.535-0.443-2.742-1.331-3.622c-0.887-0.88-2.132-1.32-3.734-1.32H17.755z"/>
</g>
</svg>
