<?xml version="1.0" encoding="utf-8"?>
<!-- Generator: Adobe Illustrator 15.1.0, SVG Export Plug-In . SVG Version: 6.00 Build 0)  -->
<!DOCTYPE svg PUBLIC "-//W3C//DTD SVG 1.1//EN" "http://www.w3.org/Graphics/SVG/1.1/DTD/svg11.dtd">
<svg version="1.1" id="process_gco" xmlns="http://www.w3.org/2000/svg" xmlns:xlink="http://www.w3.org/1999/xlink" x="0px" y="0px"
	 viewBox="0 0 40 40" enable-background="new 0 0 40 40" xml:space="preserve">
<path fill-rule="evenodd" clip-rule="evenodd" fill="#00080D" d="M33,13c-0.022,0-0.044,0.003-0.066,0.003V13H7.097l0.004,0.005
	C7.067,13.005,7.034,13,7,13c-3.866,0-7,3.134-7,7s3.134,7,7,7c0.034,0,0.067-0.005,0.102-0.005L7.097,27h25.836v-0.003
	C32.956,26.997,32.978,27,33,27c3.865,0,7-3.134,7-7S36.865,13,33,13z M4,20c0-1.657,1.343-3,3-3s3,1.343,3,3s-1.343,3-3,3
	S4,21.657,4,20z M33,23c-0.022,0-0.044,0.018-0.066,0.024v-0.021H13.315C13.75,22.093,14,21.077,14,20s-0.25-2.093-0.685-3.005
	h19.619v-0.011C32.956,16.988,32.978,17,33,17c1.656,0,3,1.343,3,3S34.656,23,33,23z"/>
</svg>
