<?xml version="1.0" encoding="utf-8"?>
<!-- Generator: Adobe Illustrator 15.1.0, SVG Export Plug-In . SVG Version: 6.00 Build 0)  -->
<!DOCTYPE svg PUBLIC "-//W3C//DTD SVG 1.1//EN" "http://www.w3.org/Graphics/SVG/1.1/DTD/svg11.dtd">
<svg version="1.1" id="process_glb" xmlns="http://www.w3.org/2000/svg" xmlns:xlink="http://www.w3.org/1999/xlink" x="0px" y="0px"
	 viewBox="0 0 40 40" enable-background="new 0 0 40 40" xml:space="preserve">
<path fill-rule="evenodd" clip-rule="evenodd" fill="#00080D" d="M13.858,19.18c-0.896-0.537-1.686-1.173-2.343-1.892l-6.519,6.519
	V19.94H2.003v9.015h9.015v-2.994H7.077L13.858,19.18z M34.02,19.94v3.865l-5.35-5.349c-0.793,0.611-1.702,1.129-2.697,1.537
	l5.968,5.967h-3.941v2.994h6.021h2.994V19.94H34.02z M21.016,31.586V21h-2.995v10.533L15.287,28.8l-2.117,2.117l6.374,6.374
	l6.375-6.374L23.802,28.8L21.016,31.586z"/>
<g>
	<path fill="#00080D" d="M26.648,17.608c-1.572,0.906-3.526,1.359-5.862,1.359c-2.59,0-4.633-0.717-6.126-2.15
		c-1.494-1.434-2.24-3.409-2.24-5.924c0-2.531,0.816-4.593,2.448-6.188s3.803-2.392,6.513-2.392c1.707,0,3.212,0.236,4.515,0.708
		v3.403c-1.242-0.719-2.763-1.078-4.56-1.078c-1.504,0-2.73,0.489-3.677,1.466c-0.947,0.977-1.42,2.281-1.42,3.914
		c0,1.655,0.425,2.935,1.274,3.841c0.85,0.906,1.998,1.359,3.442,1.359c0.868,0,1.557-0.124,2.065-0.371v-3.145h-3.222V9.511h6.85
		V17.608z"/>
</g>
</svg>
