<?xml version="1.0" encoding="utf-8"?>
<!-- Generator: Adobe Illustrator 15.1.0, SVG Export Plug-In . SVG Version: 6.00 Build 0)  -->
<!DOCTYPE svg PUBLIC "-//W3C//DTD SVG 1.1//EN" "http://www.w3.org/Graphics/SVG/1.1/DTD/svg11.dtd">
<svg version="1.1" id="process_nma" xmlns="http://www.w3.org/2000/svg" xmlns:xlink="http://www.w3.org/1999/xlink" x="0px" y="0px"
	 viewBox="0 0 40 40" enable-background="new 0 0 40 40" xml:space="preserve">
<path fill-rule="evenodd" clip-rule="evenodd" fill="#00080D" d="M4.901,24.843C4.374,24.645,4.083,24.395,4,24.136v3.712
	c-0.114,0.354,0.178,0.724,0.901,0.995l12.835,4.822c0.625,0.234,1.444,0.353,2.264,0.353v-4c-0.819,0-1.639-0.118-2.264-0.353
	L4.901,24.843z M36,11.838v-0.691c0,0,0,0-0.001,0.001c0.124-0.357-0.167-0.731-0.897-1.007L22.266,5.319
	c-1.25-0.47-3.278-0.47-4.529,0L4.901,10.141C4.178,10.413,3.886,10.782,4,11.137v0.711c-0.114,0.354,0.178,0.724,0.901,0.995
	l12.835,4.822c1.251,0.47,3.279,0.47,4.529,0l12.836-4.822C35.832,12.568,36.123,12.195,36,11.838z M4.901,16.843
	C4.374,16.645,4.083,16.395,4,16.136v3.712c-0.114,0.354,0.178,0.724,0.901,0.995l12.835,4.822c0.625,0.234,1.444,0.353,2.264,0.353
	v-4c-0.819,0-1.639-0.118-2.264-0.353L4.901,16.843z"/>
<path fill-rule="evenodd" clip-rule="evenodd" fill="#00080D" d="M38.947,26.958v-2.985h-2.756
	c-0.141-0.517-0.349-1.005-0.612-1.456l1.952-1.952l-2.111-2.111l-1.944,1.943c-0.454-0.271-0.947-0.484-1.472-0.626v-2.735h-2.985
	v2.699c-0.543,0.133-1.054,0.342-1.524,0.612l-1.89-1.89l-2.111,2.111l1.865,1.865c-0.288,0.475-0.516,0.99-0.665,1.539h-2.624
	v2.985h2.588c0.141,0.571,0.367,1.106,0.657,1.601l-1.83,1.829l2.111,2.111l1.825-1.824c0.491,0.291,1.026,0.519,1.598,0.658v2.58
	h2.985v-2.616c0.553-0.149,1.069-0.381,1.545-0.673l1.879,1.879l2.111-2.111l-1.917-1.917c0.266-0.47,0.472-0.979,0.604-1.517
	H38.947z M30.479,28.543c-1.688,0-3.056-1.368-3.056-3.056c0-1.688,1.368-3.057,3.056-3.057c1.688,0,3.057,1.368,3.057,3.057
	C33.535,27.175,32.167,28.543,30.479,28.543z"/>
</svg>
