<?xml version="1.0" encoding="utf-8"?>
<!-- Generator: Adobe Illustrator 15.1.0, SVG Export Plug-In . SVG Version: 6.00 Build 0)  -->
<!DOCTYPE svg PUBLIC "-//W3C//DTD SVG 1.1//EN" "http://www.w3.org/Graphics/SVG/1.1/DTD/svg11.dtd">
<svg version="1.1" id="process_nrd" xmlns="http://www.w3.org/2000/svg" xmlns:xlink="http://www.w3.org/1999/xlink" x="0px" y="0px"
	 viewBox="0 0 40 40" enable-background="new 0 0 40 40" xml:space="preserve">
<path fill-rule="evenodd" clip-rule="evenodd" fill="#00080D" d="M4.901,12.843l12.835,4.822c1.251,0.47,3.279,0.47,4.529,0
	l12.836-4.822c0.73-0.274,1.021-0.647,0.898-1.005v-0.691c0,0,0,0-0.001,0.001c0.124-0.357-0.167-0.731-0.897-1.007L22.266,5.319
	c-1.25-0.47-3.278-0.47-4.529,0L4.901,10.141C4.178,10.413,3.886,10.782,4,11.137v0.711C3.886,12.202,4.178,12.571,4.901,12.843z
	 M36,16.146c-0.088,0.254-0.379,0.501-0.898,0.696l-12.836,4.822c-1.25,0.47-3.278,0.47-4.529,0L4.901,16.843
	C4.374,16.645,4.083,16.395,4,16.136v3.712c-0.114,0.354,0.178,0.724,0.901,0.995l12.835,4.822c1.251,0.47,3.279,0.47,4.529,0
	l12.836-4.822c0.73-0.274,1.021-0.647,0.898-1.005V16.146z M36,24.146c-0.088,0.254-0.379,0.501-0.898,0.696l-12.836,4.822
	c-1.25,0.47-3.278,0.47-4.529,0L4.901,24.843C4.374,24.645,4.083,24.395,4,24.136v3.712c-0.114,0.354,0.178,0.724,0.901,0.995
	l12.835,4.822c1.251,0.47,3.279,0.47,4.529,0l12.836-4.822c0.73-0.274,1.021-0.647,0.898-1.005V24.146z"/>
<path fill-rule="evenodd" clip-rule="evenodd" fill="#00080D" d="M4.901,12.843l12.835,4.822c1.251,0.47,3.279,0.47,4.529,0
	l12.836-4.822c0.73-0.274,1.021-0.647,0.898-1.005v-0.691c0,0,0,0-0.001,0.001c0.124-0.357-0.167-0.731-0.897-1.007L22.266,5.319
	c-1.25-0.47-3.278-0.47-4.529,0L4.901,10.141C4.178,10.413,3.886,10.782,4,11.137v0.711C3.886,12.202,4.178,12.571,4.901,12.843z
	 M36,16.146c-0.088,0.254-0.379,0.501-0.898,0.696l-12.836,4.822c-1.25,0.47-3.278,0.47-4.529,0L4.901,16.843
	C4.374,16.645,4.083,16.395,4,16.136v3.712c-0.114,0.354,0.178,0.724,0.901,0.995l12.835,4.822c1.251,0.47,3.279,0.47,4.529,0
	l12.836-4.822c0.73-0.274,1.021-0.647,0.898-1.005V16.146z M36,24.146c-0.088,0.254-0.379,0.501-0.898,0.696l-12.836,4.822
	c-1.25,0.47-3.278,0.47-4.529,0L4.901,24.843C4.374,24.645,4.083,24.395,4,24.136v3.712c-0.114,0.354,0.178,0.724,0.901,0.995
	l12.835,4.822c1.251,0.47,3.279,0.47,4.529,0l12.836-4.822c0.73-0.274,1.021-0.647,0.898-1.005V24.146z"/>
</svg>
