<?xml version="1.0" encoding="utf-8"?>
<!-- Generator: Adobe Illustrator 15.1.0, SVG Export Plug-In . SVG Version: 6.00 Build 0)  -->
<!DOCTYPE svg PUBLIC "-//W3C//DTD SVG 1.1//EN" "http://www.w3.org/Graphics/SVG/1.1/DTD/svg11.dtd">
<svg version="1.1" id="process_nwt" xmlns="http://www.w3.org/2000/svg" xmlns:xlink="http://www.w3.org/1999/xlink" x="0px" y="0px"
	 viewBox="0 0 40 40" enable-background="new 0 0 40 40" xml:space="preserve">
<path fill-rule="evenodd" clip-rule="evenodd" fill="#00080D" d="M36,24.146c-0.088,0.254-0.379,0.501-0.898,0.696l-12.836,4.822
	C21.641,29.9,20.82,30.018,20,30.018v4c0.82,0,1.641-0.117,2.266-0.353l12.836-4.822c0.73-0.274,1.021-0.647,0.898-1.005V24.146z
	 M22.266,17.665l12.836-4.822c0.73-0.274,1.021-0.647,0.898-1.005v-0.691c0,0,0,0-0.001,0.001c0.124-0.357-0.167-0.731-0.897-1.007
	L22.266,5.319c-1.25-0.47-3.278-0.47-4.529,0L4.901,10.141C4.178,10.413,3.886,10.782,4,11.137v0.711
	c-0.114,0.354,0.178,0.724,0.901,0.995l12.835,4.822C18.987,18.135,21.016,18.135,22.266,17.665z M36,16.146
	c-0.088,0.254-0.379,0.501-0.898,0.696l-12.836,4.822C21.641,21.9,20.82,22.018,20,22.018v4c0.82,0,1.641-0.117,2.266-0.353
	l12.836-4.822c0.73-0.274,1.021-0.647,0.898-1.005V16.146z"/>
<polygon fill-rule="evenodd" clip-rule="evenodd" fill="#00080D" points="15.589,23.601 15.589,23.601 9.8,17.812 7.388,20.223 
	11.207,24.041 2.011,24.041 2.011,28.035 11.155,28.035 7.388,31.802 9.8,34.213 18.001,26.013 "/>
</svg>
