<?xml version="1.0" encoding="utf-8"?>
<!-- Generator: Adobe Illustrator 15.1.0, SVG Export Plug-In . SVG Version: 6.00 Build 0)  -->
<!DOCTYPE svg PUBLIC "-//W3C//DTD SVG 1.1//EN" "http://www.w3.org/Graphics/SVG/1.1/DTD/svg11.dtd">
<svg version="1.1" id="process_par" xmlns="http://www.w3.org/2000/svg" xmlns:xlink="http://www.w3.org/1999/xlink" x="0px" y="0px"
	 viewBox="0 0 40 40" enable-background="new 0 0 40 40" xml:space="preserve">
<path fill-rule="evenodd" clip-rule="evenodd" fill="#00080D" d="M28,11.542C28,6.271,23.729,2,18.458,2
	c-5.27,0-9.542,4.271-9.542,9.542c0,5.27,4.272,9.541,9.542,9.541C23.729,21.083,28,16.812,28,11.542z M18.456,16.963
	c-2.993,0-5.419-2.426-5.419-5.419s2.426-5.419,5.419-5.419c2.993,0,5.419,2.426,5.419,5.419S21.449,16.963,18.456,16.963z M29,13v4
	h5v9h-9v-4h-4v8h17V13H29z"/>
<path fill-rule="evenodd" clip-rule="evenodd" fill="#00080D" d="M21.036,32.492l-6.035-6.034l-2.011,2.011l2.56,2.56h-3.462
	c-2.256,0-4.084-1.829-4.084-4.085v-3.479l2.534,2.534l2.011-2.011l-4.045-4.045h0l-2.011-2.011l-2.011,2.011l0,0l-4.023,4.023
	l2.011,2.012L5,23.447v4.577c0,3.317,2.689,6.007,6.006,6.007h4.469l-2.506,2.506l2.011,2.011l4.044-4.044h0L21.036,32.492z"/>
</svg>
