<?xml version="1.0" encoding="utf-8"?>
<!-- Generator: Adobe Illustrator 15.1.0, SVG Export Plug-In . SVG Version: 6.00 Build 0)  -->
<!DOCTYPE svg PUBLIC "-//W3C//DTD SVG 1.1//EN" "http://www.w3.org/Graphics/SVG/1.1/DTD/svg11.dtd">
<svg version="1.1" id="process_rtr" xmlns="http://www.w3.org/2000/svg" xmlns:xlink="http://www.w3.org/1999/xlink" x="0px" y="0px"
	 viewBox="0 0 40 40" enable-background="new 0 0 40 40" xml:space="preserve">
<polygon fill-rule="evenodd" clip-rule="evenodd" fill="#00080D" points="15.828,20.019 8.435,12.626 6.023,15.038 9.026,18.041 
	1.01,18.041 1.01,22.035 8.988,22.035 6.023,25 8.435,27.412 13.417,22.431 13.417,22.431 "/>
<polygon fill-rule="evenodd" clip-rule="evenodd" fill="#00080D" points="27.365,8.518 22.384,3.536 22.384,3.536 19.972,1.125 
	17.561,3.536 17.561,3.536 12.579,8.518 14.991,10.93 17.994,7.927 17.994,15.942 21.988,15.942 21.988,7.964 24.953,10.93 "/>
<polygon fill-rule="evenodd" clip-rule="evenodd" fill="#00080D" points="24.953,29.07 21.988,32.035 21.988,24.058 17.994,24.058 
	17.994,32.073 14.991,29.07 12.579,31.482 19.972,38.875 27.365,31.482 "/>
<polygon fill-rule="evenodd" clip-rule="evenodd" fill="#00080D" points="38.989,18.041 30.811,18.041 33.82,15.031 31.408,12.619 
	24.016,20.013 31.408,27.405 33.82,24.993 30.862,22.035 38.989,22.035 "/>
</svg>
