<?xml version="1.0" encoding="utf-8"?>
<!-- Generator: Adobe Illustrator 15.1.0, SVG Export Plug-In . SVG Version: 6.00 Build 0)  -->
<!DOCTYPE svg PUBLIC "-//W3C//DTD SVG 1.1//EN" "http://www.w3.org/Graphics/SVG/1.1/DTD/svg11.dtd">
<svg version="1.1" xmlns="http://www.w3.org/2000/svg" xmlns:xlink="http://www.w3.org/1999/xlink"
	 x="0px" y="0px" viewBox="0 0 40 40" enable-background="new 0 0 40 40" xml:space="preserve">
<g>
	<path fill="#00080D" d="M13.642,30.955c0,1.234-0.96,2.188-2.189,2.188c-1.233,0-2.189-0.953-2.189-2.188V21.45
		c0-1.234,0.956-2.191,2.189-2.191c1.229,0,2.189,0.957,2.189,2.191V30.955z"/>
	<path fill="#00080D" d="M20.071,33.555c0,1.234-0.962,2.189-2.19,2.189c-1.233,0-2.189-0.955-2.189-2.189V18.988
		c0-1.234,0.956-2.19,2.189-2.19c1.228,0,2.19,0.956,2.19,2.19V33.555z"/>
	<path fill="#00080D" d="M7.281,28.834c0,1.234-0.962,2.189-2.19,2.189c-1.233,0-2.189-0.955-2.189-2.189v-5.126
		c0-1.234,0.956-2.188,2.189-2.188c1.229,0,2.19,0.954,2.19,2.188V28.834z"/>
	<path fill="#00080D" d="M26.5,35.811c0,1.232-0.961,2.189-2.189,2.189c-1.234,0-2.191-0.957-2.191-2.189V16.522
		c0-1.228,0.957-2.183,2.191-2.183c1.227,0,2.189,0.955,2.189,2.183V35.811z"/>
	<path fill="#00080D" d="M33.474,34.854c-0.337,0-0.755-0.063-1.091-0.201l-2.734-0.89c-0.481-0.136-0.691-0.618-0.553-1.099
		c0.135-0.474,0.618-0.684,1.099-0.545l2.733,0.89c0.546,0.208,1.165,0.071,1.645-0.273c0.473-0.345,0.747-0.89,0.747-1.507v-17.71
		c0-0.824-0.545-1.577-1.299-1.778L8.098,3.872C7.553,3.665,6.935,3.807,6.462,4.145C5.98,4.49,5.708,5.036,5.708,5.653v12.173
		c0,0.481-0.408,0.891-0.89,0.891c-0.48,0-0.89-0.409-0.89-0.891V5.653c0-1.162,0.545-2.189,1.435-2.944
		c0.955-0.682,2.117-0.89,3.216-0.545l25.919,7.867c1.509,0.475,2.601,1.846,2.601,3.488V31.23c0,1.162-0.546,2.261-1.498,2.943
		C34.91,34.652,34.229,34.854,33.474,34.854z"/>
</g>
</svg>
